<?xml version="1.0" encoding="UTF-8" standalone="no"?>
<!-- Created with Inkscape (http://www.inkscape.org/) -->

<svg
   width="100"
   height="100"
   viewBox="0 0 26.458334 26.458334"
   version="1.1"
   id="svg344"
   inkscape:version="1.2 (dc2aedaf03, 2022-05-15)"
   sodipodi:docname="simple_tesseroid.svg"
   xmlns:inkscape="http://www.inkscape.org/namespaces/inkscape"
   xmlns:sodipodi="http://sodipodi.sourceforge.net/DTD/sodipodi-0.dtd"
   xmlns="http://www.w3.org/2000/svg"
   xmlns:svg="http://www.w3.org/2000/svg">
  <sodipodi:namedview
     id="namedview346"
     pagecolor="#ffffff"
     bordercolor="#666666"
     borderopacity="1.0"
     inkscape:showpageshadow="2"
     inkscape:pageopacity="0.0"
     inkscape:pagecheckerboard="0"
     inkscape:deskcolor="#d1d1d1"
     inkscape:document-units="mm"
     showgrid="false"
     inkscape:zoom="3.3638608"
     inkscape:cx="26.457694"
     inkscape:cy="75.359836"
     inkscape:window-width="1920"
     inkscape:window-height="1021"
     inkscape:window-x="0"
     inkscape:window-y="31"
     inkscape:window-maximized="1"
     inkscape:current-layer="layer1" />
  <defs
     id="defs341" />
  <g
     inkscape:label="Layer 1"
     inkscape:groupmode="layer"
     id="layer1"
     transform="translate(-71.260675,-78.317281)">
    <rect
       style="fill:#3d3d3d;fill-opacity:1;stroke:none;stroke-width:0;stroke-dasharray:none;stroke-opacity:1"
       id="rect2922"
       width="26.458328"
       height="26.458334"
       x="71.260681"
       y="78.317284" />
    <path
       d="m 73.672552,96.044522 0.0701,-0.17181 0.101685,-0.206522 0.0701,-0.205487 0.06842,-0.206861 0.103471,-0.171814 0.06842,-0.205145 0.06842,-0.206861 0.103471,-0.171813 0.06842,-0.206518 0.103471,-0.205488 0.06842,-0.171813 0.103471,-0.206862 0.06842,-0.205144 0.103471,-0.171814 0.06842,-0.20686 0.06842,-0.171814 0.103471,-0.206521 0.103471,-0.205489 0.06842,-0.171809 0.103471,-0.206865 0.06842,-0.171814 0.103472,-0.20514 0.06842,-0.171814 0.103471,-0.206865 0.06842,-0.171809 0.103471,-0.206523 0.103471,-0.171813 0.06842,-0.205488 0.103471,-0.171809 0.06842,-0.171813 0.103471,-0.206865 0.101685,-0.17181 0.0701,-0.205144 0.101685,-0.171814 0.103471,-0.171813 0.103471,-0.206861 0.06842,-0.171813 0.103471,-0.171814 0.103471,-0.206518 0.06842,-0.171813 0.103471,-0.171814 0.103471,-0.171813 0.101685,-0.205488 0.0701,-0.17181 0.101685,-0.171813 0.103472,-0.171814 0.103471,-0.206861 0.103471,-0.171813 0.103471,-0.171813 0.06842,-0.171814 0.103471,-0.171813 0.101685,-0.171814 0.103471,-0.17181 0.103471,-0.205144 0.103471,-0.171813 0.103471,-0.171813 0.101686,-0.171814 0.0701,-0.171813 0.101685,-0.17181 0.103471,-0.171814 0.103471,-0.171813 0.103471,-0.171814 0.103471,-0.171813 0.101685,-0.171809 0.103472,-0.171813 0.103471,-0.171814 0.103471,-0.138482 0.103471,-0.171814 0.101685,-0.171809 0.103471,-0.171813 0.103471,-0.171814 0.103472,-0.171813 0.103471,-0.171813 0.101685,-0.136762 0.103471,-0.171813 0.103471,-0.171814 0.103471,-0.17181 0.136767,-0.138139 0.103471,-0.171813 0.103472,-0.171814 0.103471,-0.171813 0.101685,-0.137105 0.103471,-0.171814 0.103471,-0.171813 0.103471,-0.136762 0.136756,-0.171813 0.103471,-0.138478 0.103472,-0.171814 0.103471,-0.171813 0.101685,-0.136762 0.138486,-0.171813 m -0.138486,0.171813 h 0.103471 l 0.138475,0.03366 h 0.101685 l 0.103471,0.0347 h 0.206864 l 0.103471,0.03507 h 0.205146 l 0.138486,0.03333 h 0.101685 l 0.103471,0.03507 h 0.206853 l 0.103471,0.03366 h 0.136767 l 0.103471,0.0347 h 0.205146 l 0.138475,0.03507 h 0.205145 l 0.103471,0.03334 h 0.240193 l 0.103472,0.03504 h 0.240193 l 0.103471,0.03366 h 0.103471 l 0.136768,0.0347 h 0.206864 l 0.136756,0.03507 h 0.206864 l 0.136767,0.03334 h 0.206864 l 0.136756,0.03504 h 0.343631 l 0.103472,0.03366 h 0.240193 l 0.103471,0.0347 h 0.240194 l 0.138475,0.03504 h 0.240193 l 0.103472,0.03333 h 0.376949 l 0.103471,0.03507 h 0.240194 l 0.103471,0.03366 h 0.37868 l 0.103471,0.0347 h 0.273523 l 0.103471,0.03504 h 0.378669 l 0.103471,0.03334 h 0.376961 l 0.138475,0.03507 h 0.343631 l 0.136756,0.03366 h 0.37868 l 0.101685,0.0347 h 0.515436 l 0.103471,0.03507 h 0.37868 m -4.777431,16.424264 0.0701,-0.205487 0.03337,-0.171814 0.03505,-0.206864 0.03337,-0.205145 0.0701,-0.206861 0.03337,-0.206518 0.03505,-0.205488 0.06842,-0.171813 0.03505,-0.206862 0.03337,-0.205144 0.03505,-0.206865 0.06842,-0.171809 0.03505,-0.206523 0.03337,-0.205488 0.06842,-0.20686 0.03505,-0.171814 0.03505,-0.205145 0.06842,-0.206861 0.03337,-0.171813 0.0701,-0.206518 0.03337,-0.205488 0.03505,-0.171813 0.06842,-0.206861 0.03505,-0.171814 0.06842,-0.205145 0.03337,-0.206864 0.03505,-0.17181 0.06842,-0.206521 0.03505,-0.17181 0.06842,-0.205488 0.03505,-0.171814 0.03338,-0.206865 0.06842,-0.171809 0.03505,-0.205145 0.06842,-0.171813 0.03505,-0.206865 0.06842,-0.17181 0.03505,-0.206521 0.06842,-0.17181 0.03337,-0.171813 0.0701,-0.205488 0.03337,-0.171814 0.06842,-0.20686 0.03505,-0.171814 0.06842,-0.171813 0.03505,-0.205145 0.06842,-0.171814 0.03505,-0.171813 0.06842,-0.171809 0.03337,-0.206865 0.0701,-0.171814 0.03337,-0.17181 0.06842,-0.171813 0.0701,-0.206522 0.03337,-0.171809 0.06842,-0.171813 0.03505,-0.171813 0.06842,-0.171814 0.03505,-0.205488 0.06842,-0.171813 0.06842,-0.17181 0.03505,-0.171814 0.06842,-0.171813 0.03505,-0.171813 0.06842,-0.171814 0.06842,-0.171813 0.03505,-0.17181 0.06842,-0.171814 0.03337,-0.171813 0.0701,-0.171813 0.06842,-0.171814 0.03337,-0.171809 0.0701,-0.171813 0.06842,-0.171814 0.03337,-0.171813 0.0701,-0.171813 0.06842,-0.171814 0.03337,-0.17181 0.0701,-0.171813 0.06842,-0.138139 0.03337,-0.171812 0.0701,-0.171811 0.06842,-0.171813 0.03338,-0.171813 0.0701,-0.137106 0.06842,-0.171813 0.06842,-0.171814 0.03505,-0.136761 0.06842,-0.171814 0.06842,-0.171813 0.03505,-0.171813 m -19.14132,15.256279 0.138486,0.03504 0.136756,0.03334 h 0.171816 l 0.138486,0.03504 h 0.136756 l 0.171816,0.03366 h 0.136767 l 0.138475,0.0347 h 0.171815 l 0.136768,0.03507 h 0.138474 l 0.171816,0.03334 h 0.136756 l 0.136767,0.03504 h 0.171816 l 0.138475,0.03366 h 0.171816 l 0.136767,0.0347 0.138475,0.03504 h 0.171815 l 0.136767,0.03334 h 0.171805 l 0.136767,0.03504 h 0.310291 l 0.171815,0.03366 h 0.136767 l 0.171805,0.0347 h 0.138486 l 0.171816,0.03504 h 0.171804 l 0.136767,0.03334 h 0.171816 l 0.136756,0.03504 h 0.171816 l 0.138486,0.03366 h 0.171804 l 0.171816,0.0347 h 0.136767 l 0.171804,0.03504 h 0.310302 l 0.171805,0.03334 h 0.171815 l 0.136767,0.03504 h 0.171816 l 0.171805,0.03366 h 0.308582 l 0.171805,0.0347 h 0.171815 l 0.138487,0.03504 h 0.34362 l 0.171815,0.03334 h 0.136767 l 0.171805,0.03504 h 0.343631 l 0.171805,0.03366 h 0.138486 l 0.171815,0.0347 h 0.343621 l 0.171815,0.03504 h 0.171816 l 0.136756,0.03334 h 0.343631 l 0.171816,0.03504 h 0.34362 l 0.171815,0.03366 h 0.343621 l 0.171815,0.0347 h 0.308572 l 0.171815,0.03504 h 0.343632 l 0.171804,0.03334 h 0.343631 l 0.171805,0.03504 h 0.343631 l 0.171816,0.03366 h 0.34362 l 0.171816,0.0347 m 3.231111,5.738192 0.03338,-0.1718 0.03505,-0.13677 0.03505,-0.17182 0.03337,-0.1718 0.03505,-0.13814 0.03337,-0.17182 0.0701,-0.17181 0.03337,-0.13711 0.03505,-0.17181 0.03337,-0.13676 0.03505,-0.17181 0.03505,-0.17182 0.03337,-0.13848 0.03505,-0.17181 0.03337,-0.13676 0.03505,-0.17182 0.03505,-0.17181 0.03337,-0.13814 0.03505,-0.17181 0.03337,-0.137107 0.0701,-0.17181 0.03337,-0.13676 0.03505,-0.17182 0.03337,-0.13848 0.03505,-0.17181 0.03505,-0.13676 0.03337,-0.13814 0.03505,-0.17181 0.03337,-0.137106 0.0701,-0.171813 0.03337,-0.136762 0.03505,-0.171813 0.03337,-0.138482 0.03505,-0.136762 0.03505,-0.171814 0.06842,-0.138138 0.03337,-0.137105 0.03505,-0.171813 0.03505,-0.136762 0.03337,-0.138483 0.03505,-0.171813 0.06842,-0.136762 0.03505,-0.138139 0.03337,-0.17181 0.03505,-0.137108 0.03337,-0.136762 0.0701,-0.138482 0.03337,-0.171813 0.03505,-0.136763 0.03337,-0.138134 0.0701,-0.137109 0.03337,-0.171813 0.03505,-0.136762 0.03337,-0.138483 0.0701,-0.136761 0.03337,-0.138139 0.03505,-0.137106 0.03337,-0.171813 0.0701,-0.136762 0.03337,-0.138481 0.03505,-0.136763 0.03337,-0.138139 0.0701,-0.137104 0.03337,-0.136763 0.03505,-0.138482 0.06842,-0.136761 0.03505,-0.138139 0.03337,-0.137105 0.03505,-0.136765 0.06842,-0.13848 0.03505,-0.136765 0.03337,-0.138135 0.06842,-0.137109 0.03505,-0.136762 0.03505,-0.138481 0.06842,-0.136763 0.03337,-0.138135 0.03505,-0.137108 0.06842,-0.136763 0.03505,-0.103426 0.03337,-0.138138 0.0701,-0.137106 0.03337,-0.136766 0.06842,-0.138478 0.03505,-0.136766 0.03505,-0.103426 0.06842,-0.136762 0.03338,-0.138482 0.03505,-0.136761 0.06842,-0.103427 0.03505,-0.136762 M 79.968284,102.09285 h 0.103471 l 0.136756,0.0334 h 0.103471 l 0.138475,0.035 h 0.101685 l 0.138475,0.0337 h 0.240194 l 0.103471,0.0347 h 0.103471 l 0.136767,0.035 h 0.103471 l 0.136768,0.0334 h 0.240193 l 0.103471,0.035 h 0.138486 l 0.136768,0.0337 h 0.240193 l 0.103471,0.0347 h 0.136768 l 0.103471,0.035 h 0.275242 l 0.103471,0.0334 h 0.136756 l 0.103471,0.035 h 0.275242 l 0.103471,0.0337 h 0.273535 l 0.103471,0.0347 h 0.138486 l 0.136756,0.035 h 0.240193 l 0.138487,0.0334 h 0.240193 l 0.136756,0.035 h 0.240205 l 0.138475,0.0337 h 0.275242 l 0.101685,0.0347 h 0.138475 l 0.136767,0.035 h 0.378669 l 0.136767,0.0334 h 0.275242 l 0.136767,0.0351 h 0.241913 l 0.136756,0.0337 h 0.275253 l 0.136756,0.0347 h 0.275242 l 0.103471,0.035 h 0.41201 l 0.136756,0.0334 h 0.275242 l 0.138486,0.035 h 0.412009 l 0.136756,0.0337 h 0.240205 l 0.138475,0.0347 h 0.412009 l 0.136767,0.035 h 0.413717 l 0.136768,0.0334 h 0.412009 m -17.971427,-7.112377 6.288689,6.048497 m 12.817572,-21.132963 2.473763,9.071023 m -7.147756,7.353241 3.402928,5.772899"
       style="fill:none;stroke:#e0e0e0;stroke-width:0.590653;stroke-linecap:butt;stroke-linejoin:miter;stroke-miterlimit:10;stroke-dasharray:none;stroke-opacity:1"
       id="path172"
       inkscape:connector-curvature="0" />
  </g>
</svg>
