<?xml version="1.0" encoding="UTF-8" standalone="no"?>
<!-- Created with Inkscape (http://www.inkscape.org/) -->

<svg
   id="svg2"
   version="1.1"
   inkscape:version="1.1.2 (0a00cf5339, 2022-02-04, custom)"
   width="299.19934"
   height="241.30031"
   xml:space="preserve"
   sodipodi:docname="tesseroid.svg"
   inkscape:export-filename="tesseroid-coord-sys.png"
   inkscape:export-xdpi="800"
   inkscape:export-ydpi="800"
   xmlns:inkscape="http://www.inkscape.org/namespaces/inkscape"
   xmlns:sodipodi="http://sodipodi.sourceforge.net/DTD/sodipodi-0.dtd"
   xmlns:xlink="http://www.w3.org/1999/xlink"
   xmlns="http://www.w3.org/2000/svg"
   xmlns:svg="http://www.w3.org/2000/svg"
   xmlns:rdf="http://www.w3.org/1999/02/22-rdf-syntax-ns#"
   xmlns:cc="http://creativecommons.org/ns#"
   xmlns:dc="http://purl.org/dc/elements/1.1/"><metadata
     id="metadata8"><rdf:RDF><cc:Work
         rdf:about=""><dc:format>image/svg+xml</dc:format><dc:type
           rdf:resource="http://purl.org/dc/dcmitype/StillImage" /></cc:Work></rdf:RDF></metadata><defs
     id="defs6"><marker
   inkscape:stockid="Arrow1Mend"
   orient="auto"
   refY="0"
   refX="0"
   id="Arrow1Mend"
   style="overflow:visible"><path
     id="path4059"
     d="M 0,0 5,-5 -12.5,0 5,5 Z"
     style="fill-rule:evenodd;stroke:#000000;stroke-width:1pt;marker-start:none"
     transform="matrix(-0.4,0,0,-0.4,-4,0)"
     inkscape:connector-curvature="0" /></marker><g
   id="g8152">
      <symbol
   overflow="visible"
   id="symbol5705">
        <path
   style="stroke:none"
   d=""
   id="path2786" />
      </symbol>
      <symbol
   overflow="visible"
   id="symbol6658">
        <path
   style="stroke:none"
   d="M 3.328125,-3.015625 C 3.390625,-3.265625 3.625,-4.1875 4.3125,-4.1875 c 0.046875,0 0.296875,0 0.5,0.125 C 4.53125,-4 4.34375,-3.765625 4.34375,-3.515625 c 0,0.15625 0.109375,0.34375 0.375,0.34375 0.21875,0 0.53125,-0.171875 0.53125,-0.578125 0,-0.515625 -0.578125,-0.65625 -0.921875,-0.65625 -0.578125,0 -0.921875,0.53125 -1.046875,0.75 -0.25,-0.65625 -0.78125,-0.75 -1.078125,-0.75 -1.03125,0 -1.609375,1.28125 -1.609375,1.53125 0,0.109375 0.109375,0.109375 0.125,0.109375 0.078125,0 0.109375,-0.03125 0.125,-0.109375 0.34375,-1.0625 1,-1.3125 1.34375,-1.3125 0.1875,0 0.53125,0.09375 0.53125,0.671875 0,0.3125 -0.171875,0.96875 -0.53125,2.375 -0.15625,0.609375 -0.515625,1.03125 -0.953125,1.03125 -0.0625,0 -0.28125,0 -0.5,-0.125 0.25,-0.0625 0.46875,-0.265625 0.46875,-0.546875 0,-0.265625 -0.21875,-0.34375 -0.359375,-0.34375 -0.3125,0 -0.546875,0.25 -0.546875,0.578125 0,0.453125 0.484375,0.65625 0.921875,0.65625 0.671875,0 1.03125,-0.703125 1.046875,-0.75 0.125,0.359375 0.484375,0.75 1.078125,0.75 1.03125,0 1.59375,-1.28125 1.59375,-1.53125 0,-0.109375 -0.078125,-0.109375 -0.109375,-0.109375 -0.09375,0 -0.109375,0.046875 -0.140625,0.109375 -0.328125,1.078125 -1,1.3125 -1.3125,1.3125 -0.390625,0 -0.546875,-0.3125 -0.546875,-0.65625 0,-0.21875 0.046875,-0.4375 0.15625,-0.875 z m 0,0"
   id="path7441" />
      </symbol>
    </g>
  <g
   id="g5491">
      <symbol
   overflow="visible"
   id="symbol3709">
        <path
   style="stroke:none"
   d=""
   id="path5153" />
      </symbol>
      <symbol
   overflow="visible"
   id="symbol4951">
        <path
   style="stroke:none"
   d="m 4.84375,-3.796875 c 0.046875,-0.140625 0.046875,-0.15625 0.046875,-0.234375 0,-0.171875 -0.140625,-0.265625 -0.296875,-0.265625 -0.09375,0 -0.25,0.0625 -0.34375,0.203125 -0.015625,0.0625 -0.109375,0.359375 -0.140625,0.546875 -0.078125,0.25 -0.140625,0.53125 -0.203125,0.796875 l -0.453125,1.796875 c -0.03125,0.140625 -0.46875,0.84375 -1.125,0.84375 -0.5,0 -0.609375,-0.4375 -0.609375,-0.8125 C 1.71875,-1.375 1.890625,-2 2.21875,-2.875 2.375,-3.28125 2.421875,-3.390625 2.421875,-3.59375 c 0,-0.4375 -0.3125,-0.8125 -0.8125,-0.8125 -0.953125,0 -1.3125,1.453125 -1.3125,1.53125 0,0.109375 0.09375,0.109375 0.109375,0.109375 0.109375,0 0.109375,-0.03125 0.15625,-0.1875 0.28125,-0.9375 0.671875,-1.234375 1.015625,-1.234375 0.078125,0 0.25,0 0.25,0.3125 0,0.25 -0.109375,0.515625 -0.171875,0.703125 -0.40625,1.0625 -0.578125,1.625 -0.578125,2.09375 0,0.890625 0.625,1.1875 1.21875,1.1875 0.390625,0 0.71875,-0.171875 1,-0.453125 -0.125,0.515625 -0.25,1.015625 -0.640625,1.546875 -0.265625,0.328125 -0.640625,0.625 -1.09375,0.625 -0.140625,0 -0.59375,-0.03125 -0.765625,-0.421875 0.15625,0 0.296875,0 0.421875,-0.125 C 1.328125,1.203125 1.421875,1.0625 1.421875,0.875 1.421875,0.5625 1.15625,0.53125 1.0625,0.53125 0.828125,0.53125 0.5,0.6875 0.5,1.171875 c 0,0.5 0.4375,0.875 1.0625,0.875 1.015625,0 2.046875,-0.90625 2.328125,-2.03125 z m 0,0"
   id="path5993" />
      </symbol>
    </g>
  <g
   id="g5657">
      <symbol
   overflow="visible"
   id="symbol2908">
        <path
   style="stroke:none"
   d=""
   id="path3332" />
      </symbol>
      <symbol
   overflow="visible"
   id="symbol1466">
        <path
   style="stroke:none"
   d="m 1.328125,-0.828125 c 0.53125,-0.578125 0.828125,-0.828125 1.1875,-1.140625 0,0 0.609375,-0.53125 0.96875,-0.890625 C 4.4375,-3.78125 4.65625,-4.265625 4.65625,-4.3125 c 0,-0.09375 -0.09375,-0.09375 -0.109375,-0.09375 -0.078125,0 -0.09375,0.015625 -0.15625,0.109375 -0.296875,0.484375 -0.5,0.640625 -0.734375,0.640625 -0.25,0 -0.359375,-0.15625 -0.515625,-0.328125 -0.1875,-0.21875 -0.359375,-0.421875 -0.6875,-0.421875 -0.75,0 -1.203125,0.921875 -1.203125,1.140625 0,0.046875 0.03125,0.109375 0.109375,0.109375 0.09375,0 0.109375,-0.046875 0.140625,-0.109375 0.1875,-0.46875 0.765625,-0.46875 0.84375,-0.46875 0.203125,0 0.390625,0.0625 0.625,0.140625 0.40625,0.15625 0.515625,0.15625 0.765625,0.15625 -0.359375,0.421875 -1.1875,1.140625 -1.375,1.296875 l -0.90625,0.84375 C 0.78125,-0.625 0.421875,-0.0625 0.421875,0.015625 c 0,0.09375 0.109375,0.09375 0.125,0.09375 0.078125,0 0.09375,-0.015625 0.15625,-0.125 0.234375,-0.359375 0.53125,-0.625 0.859375,-0.625 0.21875,0 0.328125,0.09375 0.578125,0.375 0.15625,0.21875 0.34375,0.375 0.625,0.375 1,0 1.578125,-1.265625 1.578125,-1.53125 0,-0.046875 -0.046875,-0.109375 -0.125,-0.109375 -0.09375,0 -0.109375,0.0625 -0.140625,0.140625 C 3.84375,-0.75 3.203125,-0.5625 2.875,-0.5625 c -0.1875,0 -0.375,-0.0625 -0.578125,-0.125 -0.34375,-0.125 -0.5,-0.171875 -0.703125,-0.171875 -0.015625,0 -0.171875,0 -0.265625,0.03125 z m 0,0"
   id="path4855" />
      </symbol>
    </g>
  <g
   id="g2897">
      <symbol
   overflow="visible"
   id="symbol1182">
        <path
   style="stroke:none"
   d=""
   id="path9917" />
      </symbol>
      <symbol
   overflow="visible"
   id="symbol4877">
        <path
   style="stroke:none"
   d="M 4.828125,-4.09375 4,-6.078125 c -0.03125,-0.078125 -0.046875,-0.125 -0.046875,-0.125 0,-0.0625 0.15625,-0.25 0.578125,-0.296875 0.109375,-0.015625 0.203125,-0.015625 0.203125,-0.1875 0,-0.125 -0.125,-0.125 -0.15625,-0.125 -0.40625,0 -0.828125,0.03125 -1.25,0.03125 -0.25,0 -0.859375,-0.03125 -1.109375,-0.03125 -0.0625,0 -0.1875,0 -0.1875,0.203125 C 2.03125,-6.5 2.140625,-6.5 2.265625,-6.5 c 0.59375,0 0.65625,0.09375 0.75,0.3125 l 1.171875,2.78125 -2.109375,2.265625 -0.125,0.109375 C 1.46875,-0.5 1,-0.34375 0.484375,-0.3125 c -0.125,0.015625 -0.21875,0.015625 -0.21875,0.203125 0,0.015625 0,0.109375 0.140625,0.109375 0.296875,0 0.625,-0.03125 0.921875,-0.03125 C 1.703125,-0.03125 2.09375,0 2.453125,0 2.515625,0 2.625,0 2.625,-0.203125 2.625,-0.296875 2.53125,-0.3125 2.515625,-0.3125 c -0.09375,0 -0.40625,-0.03125 -0.40625,-0.3125 0,-0.15625 0.15625,-0.3125 0.265625,-0.4375 L 3.40625,-2.140625 4.296875,-3.125 l 1,2.390625 c 0.046875,0.109375 0.0625,0.109375 0.0625,0.140625 0,0.078125 -0.203125,0.25 -0.578125,0.28125 C 4.671875,-0.296875 4.578125,-0.296875 4.578125,-0.125 4.578125,0 4.6875,0 4.71875,0 5,0 5.703125,-0.03125 5.984375,-0.03125 6.234375,-0.03125 6.84375,0 7.09375,0 c 0.0625,0 0.1875,0 0.1875,-0.1875 0,-0.125 -0.109375,-0.125 -0.1875,-0.125 -0.65625,0 -0.6875,-0.03125 -0.859375,-0.4375 C 5.859375,-1.671875 5.1875,-3.234375 4.953125,-3.828125 5.625,-4.53125 6.671875,-5.71875 7,-5.984375 7.28125,-6.234375 7.671875,-6.46875 8.265625,-6.5 c 0.125,-0.015625 0.21875,-0.015625 0.21875,-0.203125 0,0 0,-0.109375 -0.125,-0.109375 -0.296875,0 -0.640625,0.03125 -0.9375,0.03125 -0.375,0 -0.75,-0.03125 -1.109375,-0.03125 -0.0625,0 -0.1875,0 -0.1875,0.203125 0,0.0625 0.046875,0.09375 0.109375,0.109375 0.09375,0.015625 0.40625,0.03125 0.40625,0.3125 0,0.140625 -0.109375,0.265625 -0.1875,0.359375 z m 0,0"
   id="path7232" />
      </symbol>
    </g>
  <g
   id="g9062">
      <symbol
   overflow="visible"
   id="symbol1881">
        <path
   style="stroke:none"
   d=""
   id="path236" />
      </symbol>
      <symbol
   overflow="visible"
   id="symbol6325">
        <path
   style="stroke:none"
   d="M 5.953125,-5.671875 6.09375,-5.8125 C 6.390625,-6.109375 6.71875,-6.453125 7.390625,-6.5 7.5,-6.515625 7.59375,-6.515625 7.59375,-6.6875 c 0,-0.078125 -0.046875,-0.125 -0.125,-0.125 -0.265625,0 -0.546875,0.03125 -0.8125,0.03125 -0.34375,0 -0.6875,-0.03125 -1,-0.03125 -0.0625,0 -0.1875,0 -0.1875,0.1875 0,0.109375 0.09375,0.125 0.140625,0.125 0.078125,0 0.359375,0.015625 0.359375,0.234375 0,0.171875 -0.234375,0.421875 -0.265625,0.46875 L 3.390625,-3.125 2.296875,-6.09375 C 2.234375,-6.234375 2.234375,-6.25 2.234375,-6.265625 2.234375,-6.5 2.71875,-6.5 2.828125,-6.5 c 0.125,0 0.234375,0 0.234375,-0.203125 0,-0.109375 -0.125,-0.109375 -0.15625,-0.109375 -0.28125,0 -0.96875,0.03125 -1.25,0.03125 -0.25,0 -0.875,-0.03125 -1.125,-0.03125 -0.046875,0 -0.1875,0 -0.1875,0.203125 C 0.34375,-6.5 0.453125,-6.5 0.578125,-6.5 c 0.59375,0 0.640625,0.09375 0.734375,0.34375 L 2.53125,-2.875 c 0.015625,0.03125 0.046875,0.140625 0.046875,0.15625 0,0.03125 -0.40625,1.640625 -0.453125,1.828125 C 2,-0.34375 1.984375,-0.3125 1.1875,-0.3125 c -0.1875,0 -0.265625,0 -0.265625,0.203125 C 0.921875,0 1.03125,0 1.0625,0 c 0.265625,0 0.96875,-0.03125 1.25,-0.03125 0.28125,0 1,0.03125 1.28125,0.03125 0.0625,0 0.1875,0 0.1875,-0.203125 C 3.78125,-0.3125 3.6875,-0.3125 3.5,-0.3125 c -0.015625,0 -0.203125,0 -0.375,-0.015625 C 2.90625,-0.34375 2.84375,-0.375 2.84375,-0.484375 c 0,-0.078125 0.09375,-0.421875 0.140625,-0.625 l 0.359375,-1.40625 c 0.046875,-0.203125 0.0625,-0.21875 0.140625,-0.3125 z m 0,0"
   id="path1131" />
      </symbol>
    </g>
  <g
   id="g9992">
      <symbol
   overflow="visible"
   id="symbol1312">
        <path
   style="stroke:none"
   d=""
   id="path6686" />
      </symbol>
      <symbol
   overflow="visible"
   id="symbol1908">
        <path
   style="stroke:none"
   d="m 7.171875,-6.5625 c 0.015625,-0.046875 0.03125,-0.09375 0.03125,-0.15625 0,-0.09375 -0.046875,-0.09375 -0.25,-0.09375 H 2.75 c -0.234375,0 -0.25,0.015625 -0.3125,0.203125 L 1.890625,-4.8125 c -0.015625,0.046875 -0.03125,0.125 -0.03125,0.140625 0,0 0,0.109375 0.125,0.109375 0.09375,0 0.109375,-0.078125 0.125,-0.109375 C 2.5,-5.84375 3.015625,-6.5 4.5625,-6.5 h 1.625 L 0.625,-0.265625 c 0,0 -0.046875,0.140625 -0.046875,0.171875 C 0.578125,0 0.640625,0 0.828125,0 H 5.15625 c 0.25,0 0.25,-0.015625 0.3125,-0.203125 L 6.1875,-2.40625 c 0,-0.03125 0.03125,-0.109375 0.03125,-0.140625 0,-0.0625 -0.03125,-0.109375 -0.125,-0.109375 -0.09375,0 -0.109375,0.03125 -0.171875,0.25 C 5.484375,-1.0625 5,-0.34375 3.3125,-0.34375 H 1.609375 Z m 0,0"
   id="path116" />
      </symbol>
    </g>
  <g
   id="g3868">
      <symbol
   overflow="visible"
   id="symbol1">
        <path
   style="stroke:none"
   d=""
   id="path2601" />
      </symbol>
      <symbol
   overflow="visible"
   id="symbol9655">
        <path
   style="stroke:none"
   d="m 3.5625,-2.90625 c 0.40625,1.046875 0.890625,2.5625 1.046875,2.796875 0.15625,0.21875 0.25,0.21875 0.53125,0.21875 h 0.21875 c 0.09375,-0.015625 0.109375,-0.0625 0.109375,-0.09375 0,-0.03125 -0.03125,-0.0625 -0.0625,-0.09375 C 5.3125,-0.1875 5.25,-0.34375 5.1875,-0.53125 L 3.15625,-6.203125 c -0.21875,-0.578125 -0.75,-0.71875 -1.21875,-0.71875 -0.046875,0 -0.1875,0 -0.1875,0.109375 0,0.078125 0.078125,0.109375 0.09375,0.109375 C 2.171875,-6.65625 2.25,-6.59375 2.5,-5.90625 l 0.953125,2.703125 -2.75,2.734375 c -0.109375,0.125 -0.171875,0.171875 -0.171875,0.3125 0,0.171875 0.140625,0.28125 0.296875,0.28125 0.15625,0 0.25,-0.109375 0.328125,-0.203125 z m 0,0"
   id="path1086" />
      </symbol>
    </g>
  <g
   id="g3007">
      <symbol
   overflow="visible"
   id="symbol777">
        <path
   style="stroke:none"
   d=""
   id="path2543" />
      </symbol>
      <symbol
   overflow="visible"
   id="symbol9913">
        <path
   style="stroke:none"
   d="m 4.359375,-6.671875 c 0,-0.03125 0.03125,-0.140625 0.03125,-0.140625 0,-0.015625 0,-0.109375 -0.125,-0.109375 -0.09375,0 -0.109375,0.03125 -0.15625,0.203125 L 3.53125,-4.421875 c -1.578125,0.0625 -3.046875,1.375 -3.046875,2.734375 0,0.953125 0.703125,1.734375 1.921875,1.8125 C 2.328125,0.421875 2.25,0.75 2.171875,1.0625 c -0.125,0.46875 -0.21875,0.84375 -0.21875,0.875 0,0.09375 0.078125,0.109375 0.125,0.109375 C 2.125,2.046875 2.140625,2.03125 2.171875,2 2.1875,1.984375 2.25,1.75 2.28125,1.609375 L 2.65625,0.125 c 1.609375,-0.0625 3.0625,-1.40625 3.0625,-2.734375 0,-0.796875 -0.53125,-1.703125 -1.921875,-1.8125 z m -1.90625,6.578125 c -0.59375,-0.03125 -1.3125,-0.390625 -1.3125,-1.375 0,-1.203125 0.859375,-2.59375 2.34375,-2.734375 z m 1.28125,-4.109375 c 0.765625,0.046875 1.328125,0.5 1.328125,1.375 0,1.1875 -0.859375,2.609375 -2.34375,2.734375 z m 0,0"
   id="path8797" />
      </symbol>
    </g>
  <g
   id="g7631">
      <symbol
   overflow="visible"
   id="symbol7502">
        <path
   style="stroke:none"
   d=""
   id="path9659" />
      </symbol>
      <symbol
   overflow="visible"
   id="symbol6420">
        <path
   style="stroke:none"
   d="m 2.578125,-6.8125 c 0,0 0,-0.109375 -0.140625,-0.109375 -0.21875,0 -0.953125,0.078125 -1.21875,0.109375 -0.078125,0 -0.1875,0.015625 -0.1875,0.203125 0,0.109375 0.109375,0.109375 0.25,0.109375 0.484375,0 0.5,0.09375 0.5,0.171875 L 1.75,-6.125 0.484375,-1.140625 C 0.453125,-1.03125 0.4375,-0.96875 0.4375,-0.8125 c 0,0.578125 0.4375,0.921875 0.90625,0.921875 0.328125,0 0.578125,-0.203125 0.75,-0.5625 0.171875,-0.375 0.296875,-0.953125 0.296875,-0.96875 0,-0.109375 -0.09375,-0.109375 -0.125,-0.109375 -0.09375,0 -0.109375,0.046875 -0.125,0.1875 C 1.96875,-0.703125 1.78125,-0.109375 1.375,-0.109375 c -0.296875,0 -0.296875,-0.3125 -0.296875,-0.453125 0,-0.25 0.015625,-0.296875 0.0625,-0.484375 z m 0,0"
   id="path9041" />
      </symbol>
    </g>
  <g
   id="g609">
      <symbol
   overflow="visible"
   id="symbol4110">
        <path
   style="stroke:none"
   d=""
   id="path4731" />
      </symbol>
      <symbol
   overflow="visible"
   id="symbol6035">
        <path
   style="stroke:none"
   d="m 2.1875,-3.28125 c 0,-0.1875 0.015625,-0.203125 0.15625,-0.34375 0.390625,-0.40625 0.921875,-0.46875 1.140625,-0.46875 0.65625,0 1.21875,0.609375 1.21875,1.875 0,1.40625 -0.703125,1.921875 -1.34375,1.921875 -0.140625,0 -0.609375,0 -1.0625,-0.546875 C 2.1875,-0.96875 2.1875,-0.984375 2.1875,-1.171875 Z m 0,2.890625 c 0.4375,0.34375 0.875,0.453125 1.28125,0.453125 1.5,0 2.515625,-0.90625 2.515625,-2.28125 0,-1.328125 -0.90625,-2.265625 -2.34375,-2.265625 -0.75,0 -1.28125,0.3125 -1.5,0.484375 V -4.484375 L 0.375,-4.40625 v 0.46875 c 0.609375,0 0.6875,0 0.6875,0.375 V 1.46875 H 0.375 V 1.9375 C 0.640625,1.921875 1.25,1.90625 1.625,1.90625 c 0.390625,0 0.984375,0.015625 1.25,0.03125 V 1.46875 H 2.1875 Z m 0,0"
   id="path4359" />
      </symbol>
    </g>
  <g
   id="g2142">
      <symbol
   overflow="visible"
   id="symbol9458">
        <path
   style="stroke:none"
   d=""
   id="path4897" />
      </symbol>
      <symbol
   overflow="visible"
   id="symbol280">
        <path
   style="stroke:none"
   d="m 4.234375,-1.421875 c 0,0.1875 0,0.21875 -0.15625,0.421875 -0.40625,0.59375 -0.90625,0.703125 -1.203125,0.703125 -0.625,0 -1.21875,-0.578125 -1.21875,-1.90625 0,-1.421875 0.734375,-1.890625 1.328125,-1.890625 0.765625,0 1.25,0.796875 1.25,1.296875 z m 0.125,-2.28125 c -0.34375,-0.484375 -0.90625,-0.78125 -1.5,-0.78125 -1.453125,0 -2.484375,0.890625 -2.484375,2.265625 0,1.40625 1.015625,2.28125 2.390625,2.28125 0.5,0 0.9375,-0.140625 1.40625,-0.546875 V 1.46875 h -0.6875 V 1.9375 c 0.28125,-0.015625 0.875,-0.03125 1.25,-0.03125 0.390625,0 0.984375,0.015625 1.25,0.03125 V 1.46875 h -0.6875 v -5.953125 h -0.40625 z m 0,0"
   id="path1310" />
      </symbol>
    </g>
  <g
   id="g601">
      <symbol
   overflow="visible"
   id="symbol4393">
        <path
   style="stroke:none"
   d=""
   id="path3634" />
      </symbol>
      <symbol
   overflow="visible"
   id="symbol2963">
        <path
   style="stroke:none"
   d="m 3.5625,-2.90625 c 0.40625,1.046875 0.890625,2.5625 1.046875,2.796875 0.15625,0.21875 0.25,0.21875 0.53125,0.21875 h 0.21875 c 0.09375,-0.015625 0.109375,-0.0625 0.109375,-0.09375 0,-0.03125 -0.03125,-0.0625 -0.0625,-0.09375 C 5.3125,-0.1875 5.25,-0.34375 5.1875,-0.53125 L 3.15625,-6.203125 c -0.21875,-0.578125 -0.75,-0.71875 -1.21875,-0.71875 -0.046875,0 -0.1875,0 -0.1875,0.109375 0,0.078125 0.078125,0.109375 0.09375,0.109375 C 2.171875,-6.65625 2.25,-6.59375 2.5,-5.90625 l 0.953125,2.703125 -2.75,2.734375 c -0.109375,0.125 -0.171875,0.171875 -0.171875,0.3125 0,0.171875 0.140625,0.28125 0.296875,0.28125 0.15625,0 0.25,-0.109375 0.328125,-0.203125 z m 0,0"
   id="path1079" />
      </symbol>
      <symbol
   overflow="visible"
   id="symbol9885">
        <path
   style="stroke:none"
   d=""
   id="path2371" />
      </symbol>
      <symbol
   overflow="visible"
   id="symbol7174">
        <path
   style="stroke:none"
   d="m 2.328125,-4.4375 c 0,-0.1875 0,-0.1875 -0.203125,-0.1875 -0.453125,0.4375 -1.078125,0.4375 -1.359375,0.4375 v 0.25 c 0.15625,0 0.625,0 1,-0.1875 v 3.546875 c 0,0.234375 0,0.328125 -0.6875,0.328125 H 0.8125 V 0 c 0.125,0 0.984375,-0.03125 1.234375,-0.03125 0.21875,0 1.09375,0.03125 1.25,0.03125 V -0.25 H 3.03125 c -0.703125,0 -0.703125,-0.09375 -0.703125,-0.328125 z m 0,0"
   id="path4582" />
      </symbol>
    </g>
  <g
   id="g770">
      <symbol
   overflow="visible"
   id="symbol4610">
        <path
   style="stroke:none"
   d=""
   id="path6612" />
      </symbol>
      <symbol
   overflow="visible"
   id="symbol209">
        <path
   style="stroke:none"
   d="m 3.5625,-2.90625 c 0.40625,1.046875 0.890625,2.5625 1.046875,2.796875 0.15625,0.21875 0.25,0.21875 0.53125,0.21875 h 0.21875 c 0.09375,-0.015625 0.109375,-0.0625 0.109375,-0.09375 0,-0.03125 -0.03125,-0.0625 -0.0625,-0.09375 C 5.3125,-0.1875 5.25,-0.34375 5.1875,-0.53125 L 3.15625,-6.203125 c -0.21875,-0.578125 -0.75,-0.71875 -1.21875,-0.71875 -0.046875,0 -0.1875,0 -0.1875,0.109375 0,0.078125 0.078125,0.109375 0.09375,0.109375 C 2.171875,-6.65625 2.25,-6.59375 2.5,-5.90625 l 0.953125,2.703125 -2.75,2.734375 c -0.109375,0.125 -0.171875,0.171875 -0.171875,0.3125 0,0.171875 0.140625,0.28125 0.296875,0.28125 0.15625,0 0.25,-0.109375 0.328125,-0.203125 z m 0,0"
   id="path8539" />
      </symbol>
      <symbol
   overflow="visible"
   id="symbol2910">
        <path
   style="stroke:none"
   d=""
   id="path1478" />
      </symbol>
      <symbol
   overflow="visible"
   id="symbol5968">
        <path
   style="stroke:none"
   d="M 3.515625,-1.265625 H 3.28125 c -0.015625,0.15625 -0.09375,0.5625 -0.1875,0.625 C 3.046875,-0.59375 2.515625,-0.59375 2.40625,-0.59375 H 1.125 c 0.734375,-0.640625 0.984375,-0.84375 1.390625,-1.171875 0.515625,-0.40625 1,-0.84375 1,-1.5 0,-0.84375 -0.734375,-1.359375 -1.625,-1.359375 -0.859375,0 -1.453125,0.609375 -1.453125,1.25 0,0.34375 0.296875,0.390625 0.375,0.390625 0.15625,0 0.359375,-0.125 0.359375,-0.375 0,-0.125 -0.046875,-0.375 -0.40625,-0.375 C 0.984375,-4.21875 1.453125,-4.375 1.78125,-4.375 c 0.703125,0 1.0625,0.546875 1.0625,1.109375 0,0.609375 -0.4375,1.078125 -0.65625,1.328125 L 0.515625,-0.265625 C 0.4375,-0.203125 0.4375,-0.1875 0.4375,0 h 2.875 z m 0,0"
   id="path7999" />
      </symbol>
    </g>
  <g
   id="g7476">
      <symbol
   overflow="visible"
   id="symbol5509">
        <path
   style="stroke:none"
   d=""
   id="path9604" />
      </symbol>
      <symbol
   overflow="visible"
   id="symbol594">
        <path
   style="stroke:none"
   d="m 4.359375,-6.671875 c 0,-0.03125 0.03125,-0.140625 0.03125,-0.140625 0,-0.015625 0,-0.109375 -0.125,-0.109375 -0.09375,0 -0.109375,0.03125 -0.15625,0.203125 L 3.53125,-4.421875 c -1.578125,0.0625 -3.046875,1.375 -3.046875,2.734375 0,0.953125 0.703125,1.734375 1.921875,1.8125 C 2.328125,0.421875 2.25,0.75 2.171875,1.0625 c -0.125,0.46875 -0.21875,0.84375 -0.21875,0.875 0,0.09375 0.078125,0.109375 0.125,0.109375 C 2.125,2.046875 2.140625,2.03125 2.171875,2 2.1875,1.984375 2.25,1.75 2.28125,1.609375 L 2.65625,0.125 c 1.609375,-0.0625 3.0625,-1.40625 3.0625,-2.734375 0,-0.796875 -0.53125,-1.703125 -1.921875,-1.8125 z m -1.90625,6.578125 c -0.59375,-0.03125 -1.3125,-0.390625 -1.3125,-1.375 0,-1.203125 0.859375,-2.59375 2.34375,-2.734375 z m 1.28125,-4.109375 c 0.765625,0.046875 1.328125,0.5 1.328125,1.375 0,1.1875 -0.859375,2.609375 -2.34375,2.734375 z m 0,0"
   id="path7070" />
      </symbol>
      <symbol
   overflow="visible"
   id="symbol7802">
        <path
   style="stroke:none"
   d=""
   id="path364" />
      </symbol>
      <symbol
   overflow="visible"
   id="symbol9880">
        <path
   style="stroke:none"
   d="M 3.515625,-1.265625 H 3.28125 c -0.015625,0.15625 -0.09375,0.5625 -0.1875,0.625 C 3.046875,-0.59375 2.515625,-0.59375 2.40625,-0.59375 H 1.125 c 0.734375,-0.640625 0.984375,-0.84375 1.390625,-1.171875 0.515625,-0.40625 1,-0.84375 1,-1.5 0,-0.84375 -0.734375,-1.359375 -1.625,-1.359375 -0.859375,0 -1.453125,0.609375 -1.453125,1.25 0,0.34375 0.296875,0.390625 0.375,0.390625 0.15625,0 0.359375,-0.125 0.359375,-0.375 0,-0.125 -0.046875,-0.375 -0.40625,-0.375 C 0.984375,-4.21875 1.453125,-4.375 1.78125,-4.375 c 0.703125,0 1.0625,0.546875 1.0625,1.109375 0,0.609375 -0.4375,1.078125 -0.65625,1.328125 L 0.515625,-0.265625 C 0.4375,-0.203125 0.4375,-0.1875 0.4375,0 h 2.875 z m 0,0"
   id="path3327" />
      </symbol>
    </g>
  <g
   id="g7654">
      <symbol
   overflow="visible"
   id="symbol4463">
        <path
   style="stroke:none"
   d=""
   id="path8920" />
      </symbol>
      <symbol
   overflow="visible"
   id="symbol2690">
        <path
   style="stroke:none"
   d="m 4.359375,-6.671875 c 0,-0.03125 0.03125,-0.140625 0.03125,-0.140625 0,-0.015625 0,-0.109375 -0.125,-0.109375 -0.09375,0 -0.109375,0.03125 -0.15625,0.203125 L 3.53125,-4.421875 c -1.578125,0.0625 -3.046875,1.375 -3.046875,2.734375 0,0.953125 0.703125,1.734375 1.921875,1.8125 C 2.328125,0.421875 2.25,0.75 2.171875,1.0625 c -0.125,0.46875 -0.21875,0.84375 -0.21875,0.875 0,0.09375 0.078125,0.109375 0.125,0.109375 C 2.125,2.046875 2.140625,2.03125 2.171875,2 2.1875,1.984375 2.25,1.75 2.28125,1.609375 L 2.65625,0.125 c 1.609375,-0.0625 3.0625,-1.40625 3.0625,-2.734375 0,-0.796875 -0.53125,-1.703125 -1.921875,-1.8125 z m -1.90625,6.578125 c -0.59375,-0.03125 -1.3125,-0.390625 -1.3125,-1.375 0,-1.203125 0.859375,-2.59375 2.34375,-2.734375 z m 1.28125,-4.109375 c 0.765625,0.046875 1.328125,0.5 1.328125,1.375 0,1.1875 -0.859375,2.609375 -2.34375,2.734375 z m 0,0"
   id="path7371" />
      </symbol>
      <symbol
   overflow="visible"
   id="symbol2059">
        <path
   style="stroke:none"
   d=""
   id="path7850" />
      </symbol>
      <symbol
   overflow="visible"
   id="symbol1678">
        <path
   style="stroke:none"
   d="m 2.328125,-4.4375 c 0,-0.1875 0,-0.1875 -0.203125,-0.1875 -0.453125,0.4375 -1.078125,0.4375 -1.359375,0.4375 v 0.25 c 0.15625,0 0.625,0 1,-0.1875 v 3.546875 c 0,0.234375 0,0.328125 -0.6875,0.328125 H 0.8125 V 0 c 0.125,0 0.984375,-0.03125 1.234375,-0.03125 0.21875,0 1.09375,0.03125 1.25,0.03125 V -0.25 H 3.03125 c -0.703125,0 -0.703125,-0.09375 -0.703125,-0.328125 z m 0,0"
   id="path600" />
      </symbol>
    </g>
  <g
   id="g2474">
      <symbol
   overflow="visible"
   id="symbol3007">
        <path
   style="stroke:none"
   d=""
   id="path6424" />
      </symbol>
      <symbol
   overflow="visible"
   id="symbol9775">
        <path
   style="stroke:none"
   d="m 0.875,-0.59375 c -0.03125,0.15625 -0.09375,0.390625 -0.09375,0.4375 0,0.171875 0.140625,0.265625 0.296875,0.265625 0.125,0 0.296875,-0.078125 0.375,-0.28125 C 1.46875,-0.203125 1.796875,-1.5625 1.84375,-1.75 c 0.078125,-0.328125 0.265625,-1.015625 0.3125,-1.296875 0.046875,-0.125 0.328125,-0.59375 0.5625,-0.8125 0.078125,-0.0625 0.375,-0.328125 0.796875,-0.328125 0.265625,0 0.40625,0.125 0.421875,0.125 -0.296875,0.046875 -0.515625,0.28125 -0.515625,0.546875 0,0.15625 0.109375,0.34375 0.375,0.34375 0.265625,0 0.546875,-0.234375 0.546875,-0.59375 0,-0.34375 -0.3125,-0.640625 -0.828125,-0.640625 C 2.875,-4.40625 2.4375,-3.921875 2.25,-3.640625 2.15625,-4.09375 1.796875,-4.40625 1.328125,-4.40625 0.875,-4.40625 0.6875,-4.015625 0.59375,-3.84375 0.421875,-3.5 0.296875,-2.90625 0.296875,-2.875 c 0,0.109375 0.09375,0.109375 0.109375,0.109375 0.109375,0 0.109375,-0.015625 0.171875,-0.234375 0.171875,-0.703125 0.375,-1.1875 0.734375,-1.1875 0.15625,0 0.296875,0.078125 0.296875,0.453125 0,0.21875 -0.03125,0.328125 -0.15625,0.84375 z m 0,0"
   id="path9316" />
      </symbol>
      <symbol
   overflow="visible"
   id="symbol1969">
        <path
   style="stroke:none"
   d=""
   id="path6001" />
      </symbol>
      <symbol
   overflow="visible"
   id="symbol2657">
        <path
   style="stroke:none"
   d="m 2.328125,-4.4375 c 0,-0.1875 0,-0.1875 -0.203125,-0.1875 -0.453125,0.4375 -1.078125,0.4375 -1.359375,0.4375 v 0.25 c 0.15625,0 0.625,0 1,-0.1875 v 3.546875 c 0,0.234375 0,0.328125 -0.6875,0.328125 H 0.8125 V 0 c 0.125,0 0.984375,-0.03125 1.234375,-0.03125 0.21875,0 1.09375,0.03125 1.25,0.03125 V -0.25 H 3.03125 c -0.703125,0 -0.703125,-0.09375 -0.703125,-0.328125 z m 0,0"
   id="path6220" />
      </symbol>
    </g>
  <g
   id="g5824">
      <symbol
   overflow="visible"
   id="symbol6493">
        <path
   style="stroke:none"
   d=""
   id="path4424" />
      </symbol>
      <symbol
   overflow="visible"
   id="symbol2879">
        <path
   style="stroke:none"
   d="m 0.875,-0.59375 c -0.03125,0.15625 -0.09375,0.390625 -0.09375,0.4375 0,0.171875 0.140625,0.265625 0.296875,0.265625 0.125,0 0.296875,-0.078125 0.375,-0.28125 C 1.46875,-0.203125 1.796875,-1.5625 1.84375,-1.75 c 0.078125,-0.328125 0.265625,-1.015625 0.3125,-1.296875 0.046875,-0.125 0.328125,-0.59375 0.5625,-0.8125 0.078125,-0.0625 0.375,-0.328125 0.796875,-0.328125 0.265625,0 0.40625,0.125 0.421875,0.125 -0.296875,0.046875 -0.515625,0.28125 -0.515625,0.546875 0,0.15625 0.109375,0.34375 0.375,0.34375 0.265625,0 0.546875,-0.234375 0.546875,-0.59375 0,-0.34375 -0.3125,-0.640625 -0.828125,-0.640625 C 2.875,-4.40625 2.4375,-3.921875 2.25,-3.640625 2.15625,-4.09375 1.796875,-4.40625 1.328125,-4.40625 0.875,-4.40625 0.6875,-4.015625 0.59375,-3.84375 0.421875,-3.5 0.296875,-2.90625 0.296875,-2.875 c 0,0.109375 0.09375,0.109375 0.109375,0.109375 0.109375,0 0.109375,-0.015625 0.171875,-0.234375 0.171875,-0.703125 0.375,-1.1875 0.734375,-1.1875 0.15625,0 0.296875,0.078125 0.296875,0.453125 0,0.21875 -0.03125,0.328125 -0.15625,0.84375 z m 0,0"
   id="path8344" />
      </symbol>
      <symbol
   overflow="visible"
   id="symbol8803">
        <path
   style="stroke:none"
   d=""
   id="path4551" />
      </symbol>
      <symbol
   overflow="visible"
   id="symbol4164">
        <path
   style="stroke:none"
   d="M 3.515625,-1.265625 H 3.28125 c -0.015625,0.15625 -0.09375,0.5625 -0.1875,0.625 C 3.046875,-0.59375 2.515625,-0.59375 2.40625,-0.59375 H 1.125 c 0.734375,-0.640625 0.984375,-0.84375 1.390625,-1.171875 0.515625,-0.40625 1,-0.84375 1,-1.5 0,-0.84375 -0.734375,-1.359375 -1.625,-1.359375 -0.859375,0 -1.453125,0.609375 -1.453125,1.25 0,0.34375 0.296875,0.390625 0.375,0.390625 0.15625,0 0.359375,-0.125 0.359375,-0.375 0,-0.125 -0.046875,-0.375 -0.40625,-0.375 C 0.984375,-4.21875 1.453125,-4.375 1.78125,-4.375 c 0.703125,0 1.0625,0.546875 1.0625,1.109375 0,0.609375 -0.4375,1.078125 -0.65625,1.328125 L 0.515625,-0.265625 C 0.4375,-0.203125 0.4375,-0.1875 0.4375,0 h 2.875 z m 0,0"
   id="path4414" />
      </symbol>
    </g>
  <marker
   inkscape:stockid="Arrow1Mend4005"
   orient="auto"
   refY="0"
   refX="0"
   style="overflow:visible"
   id="Arrow1Mend4005"><path
     id="path47609"
     d="M 0,0 5,-5 -12.5,0 5,5 Z"
     style="fill:#ca1919;fill-rule:evenodd;stroke:#000000;stroke-width:1pt;marker-start:none"
     transform="matrix(-0.4,0,0,-0.4,-4,0)"
     inkscape:connector-curvature="0" /></marker><marker
   inkscape:stockid="Arrow1Mend400536"
   orient="auto"
   refY="0"
   refX="0"
   style="overflow:visible"
   id="Arrow1Mend400536"><path
     id="path49927"
     d="M 0,0 5,-5 -12.5,0 5,5 Z"
     style="fill:#ca1919;fill-rule:evenodd;stroke:#ca1919;stroke-width:1pt;marker-start:none"
     transform="matrix(-0.4,0,0,-0.4,-4,0)"
     inkscape:connector-curvature="0" /></marker><marker
   inkscape:stockid="Arrow1Mend2604"
   orient="auto"
   refY="0"
   refX="0"
   style="overflow:visible"
   id="Arrow1Mend2604"><path
     id="path53343"
     d="M 0,0 5,-5 -12.5,0 5,5 Z"
     style="fill:#cf1515;fill-rule:evenodd;stroke:#cf1515;stroke-width:1pt;marker-start:none"
     transform="matrix(-0.4,0,0,-0.4,-4,0)"
     inkscape:connector-curvature="0" /></marker></defs><sodipodi:namedview
     pagecolor="#ffffff"
     bordercolor="#666666"
     borderopacity="1"
     objecttolerance="10"
     gridtolerance="10"
     guidetolerance="10"
     inkscape:pageopacity="1"
     inkscape:pageshadow="2"
     inkscape:window-width="1920"
     inkscape:window-height="1021"
     id="namedview4"
     showgrid="false"
     inkscape:zoom="1.4142136"
     inkscape:cx="238.64854"
     inkscape:cy="84.49926"
     inkscape:window-x="0"
     inkscape:window-y="31"
     inkscape:window-maximized="1"
     inkscape:current-layer="g10"
     units="pc"
     inkscape:pagecheckerboard="0"
     inkscape:snap-global="true" /><g
     id="g10"
     inkscape:groupmode="layer"
     inkscape:label="tesseroid_coordsys"
     transform="matrix(1.25,0,0,-1.25,-1.5942386,243.90917)"><path
       d="m 26.859909,12.929387 v 2.141854 l 0.09495,2.232146 0.09029,2.2368 0.09495,2.140923 0.09494,2.233077 0.185237,2.232145 0.185236,2.141855 0.185237,2.235869 0.280181,2.138131 0.280182,2.2368 0.280182,2.232145 0.275527,2.141855 0.375127,2.232145 0.370473,2.141855 0.465418,2.235869 0.465419,2.138131 0.465418,2.141854 0.465418,2.235869 0.560363,2.138131 0.55571,2.141855 0.560363,2.141854 0.560364,2.141855 0.650654,2.140923 0.650655,2.04784 0.7456,2.140924 0.7456,2.138131 0.650654,2.050633 0.835891,2.04784 0.7456,2.140923 0.835891,2.04784 0.840546,2.046909 0.930836,1.955688 0.835891,2.04784 0.930836,1.951963 0.930837,2.050633 1.025781,1.952895 0.930837,1.956618 1.021127,1.951963 1.120727,1.861673 1.021128,1.956618 1.116073,1.861673 1.120727,1.861668 1.116072,1.86168 1.116073,1.86167 1.211018,1.76673 1.211018,1.77138 1.206364,1.76673 1.305964,1.77045 1.211018,1.76766 1.301309,1.67643 1.301309,1.67551 1.305964,1.67271 1.396254,1.58521 1.396255,1.67272 1.301309,1.58521 1.396255,1.48748 1.491199,1.58149 1.396255,1.4912 1.486546,1.49027 1.491199,1.48747 1.4912,1.39626 1.486546,1.4912 1.4912,1.30131 1.581491,1.39625 1.581491,1.30504 1.4912,1.30224 1.581491,1.3013 1.676436,1.21102 1.581491,1.21102 1.581491,1.21102 1.676436,1.11607 1.676436,1.21102 1.676437,1.02113 1.581491,1.11979 1.766727,1.02206 1.67643,1.02578 1.67644,0.93084 1.76673,0.93084 1.67643,0.93083 1.76673,0.83589 1.67644,0.83962 1.77138,0.83682 1.76673,0.83589 1.76672,0.7456 1.77139,0.65066 1.76672,0.7456 1.77138,0.65065 1.86168,0.56036 1.76672,0.55944 1.76673,0.55664 1.86167,0.56036 1.77139,0.46542 1.86167,0.46542 1.76673,0.37047 1.86167,0.3742 1.77138,0.3714 1.86167,0.28018 1.76673,0.27925 1.86167,0.27646 M 57.297327,7.439314 v 2.2321456 l 0.09495,2.1418544 v 2.232146 l 0.09494,2.236799 0.09029,2.140924 0.09495,2.233077 0.185237,2.232145 0.09494,2.141855 0.185237,2.235869 0.280181,2.233076 0.185237,2.232146 0.185236,2.141854 0.280182,2.235869 0.280182,2.233076 0.370473,2.141855 0.280181,2.232145 0.370473,2.235869 0.375127,2.138131 0.370473,2.2368 0.370473,2.140924 0.465418,2.138131 0.465418,2.2368 0.465418,2.140923 0.465419,2.138132 0.465418,2.141854 0.560363,2.141854 0.560364,2.141855 0.555709,2.046909 0.560364,2.141855 0.650654,2.046909 0.560364,2.141854 0.650654,2.046909 0.650655,2.046909 0.7456,2.04691 0.650654,2.050632 0.7456,1.952895 0.7456,2.046909 0.740946,1.956618 0.7456,1.955687 0.7456,1.952895 0.835891,1.956618 0.840545,1.951964 0.835891,1.861672 0.840545,1.861672 0.835892,1.95662 0.930836,1.76673 0.835891,1.86167 0.930836,1.77138 0.930837,1.86167 0.930836,1.76673 1.025782,1.67644 0.930836,1.76672 1.025782,1.67644 1.021127,1.67644 1.025782,1.67643 1.021127,1.58149 1.025782,1.67644 1.025782,1.58149 1.116072,1.49027 1.021128,1.58242 1.120727,1.48655 1.116073,1.4912 1.116073,1.49027 1.116072,1.39625 1.211018,1.39626 1.116073,1.39625 1.116077,1.30224 1.21102,1.30131 1.21101,1.30596 1.21102,1.30131 1.11608,1.21102 1.3013,1.21102 1.21102,1.21009 1.21102,1.117 1.21102,1.11607 1.30131,1.11608 1.21102,1.02578 1.30131,1.02112 1.21101,1.02579 1.30597,0.93083 1.30131,0.93084 1.21101,0.83589 1.30131,0.93084 1.30597,0.84054 1.30131,0.74467 1.30131,0.83682 1.30596,0.65066 1.30131,0.7456 1.39625,0.65065 1.30597,0.65066 1.30131,0.56036 1.3013,0.55943 1.39626,0.55664 1.30596,0.46542 1.30131,0.46542 1.39626,0.46542 1.30596,0.37419 1.30131,0.37141 1.39625,0.37047 M 96.021982,3.901205 v 6.609869 l 0.09495,2.138131 v 2.2368 l 0.09029,2.232146 0.09494,2.235868 0.09029,2.138132 0.09495,2.236799 0.09495,2.232146 0.09029,2.235869 0.185237,2.233076 0.09494,2.232146 0.185236,2.141854 0.185237,2.235869 0.18989,2.233077 0.185237,2.232145 0.185236,2.141855 0.185237,2.235869 0.185236,2.233076 0.280182,2.141855 0.185236,2.232145 0.280182,2.141855 0.280182,2.141854 0.280182,2.140924 0.280181,2.233076 0.275527,2.141855 0.28018,2.140923 0.37513,2.138131 0.27553,2.050633 0.37512,2.138131 0.37048,2.050633 0.28018,2.138131 0.37047,2.050632 0.37513,2.04784 0.46542,2.046909 0.37047,2.046909 0.37513,2.04691 0.46541,1.956618 0.37048,1.955687 0.46542,2.04784 0.46541,1.951964 0.37048,1.861672 0.46541,1.956618 0.46542,1.955688 0.56037,1.861675 0.46541,1.86167 0.46542,1.86167 0.56037,1.76766 0.46541,1.86167 0.55571,1.76673 0.46542,1.77138 0.56037,1.67551 0.5557,1.76766 0.56037,1.67643 0.56036,1.67551 0.55571,1.67271 0.56036,1.58522 0.55571,1.67271 0.65531,1.58521 0.55571,1.48748 0.56037,1.58149 0.65065,1.4912 0.56036,1.49027 0.65066,1.39625 0.65065,1.48748 0.65066,1.39625 0.56036,1.30504 0.65066,1.39625 0.65065,1.30224 0.65065,1.30131 0.65531,1.21102 0.65066,1.21102 0.65065,1.21102 0.7456,1.21008 0.65066,1.11701 0.65065,1.11607 0.65066,1.02485 0.7456,1.117 0.65065,1.02113 0.7456,0.93084 0.65066,0.93083 0.7456,0.93084 0.65065,0.93084 0.7456,0.84054 0.65065,0.83589 0.7456,0.7456 0.7456,0.7456 0.65066,0.74467 0.7456,0.65159 0.7456,0.65065 0.65065,0.65066 0.7456,0.56036 0.7456,0.55571 0.74095,0.56036 0.65531,0.46542 0.74094,0.46542 0.7456,0.46542 0.7456,0.37047 M 139.12064,2.598965 v 8.748931 l 0.0903,2.232146 v 28.855927 l 0.0949,2.141854 v 13.126654 l 0.095,2.232146 v 8.562764 l 0.0903,2.050632 v 8.377527 l 0.0949,2.04784 v 6.140728 l 0.0903,1.956618 v 5.8652 l 0.0949,1.951964 v 5.679964 l 0.095,1.86167 v 3.72335 l 0.0903,1.76672 v 5.30856 l 0.0949,1.67272 v 3.35287 l 0.0903,1.67644 v 3.16298 l 0.0949,1.58149 v 3.07269 l 0.0949,1.4912 v 1.48655 l 0.0903,1.4912 v 2.7925 l 0.0949,1.30131 v 2.70222 l 0.0903,1.21009 v 1.30224 l 0.095,1.21102 v 2.32709 l 0.0949,1.11607 v 2.14186 l 0.0903,1.02112 v 1.02578 l 0.095,0.93084 v 1.86167 l 0.0903,0.93084 v 0.83589 l 0.095,0.7456 v 0.83962 l 0.0949,0.74187 v 1.39626 l 0.0903,0.65437 v 0.55664 l 0.095,0.56037 v 1.11607 l 0.0903,0.46542 v 0.37047 l 0.0949,0.46542 M 182.58974,3.6210233 v 2.2358689 l -0.0949,2.1381311 v 4.3777237 l -0.0903,2.233076 v 2.232146 l -0.0949,2.2368 -0.0903,2.232145 -0.095,2.141855 -0.0949,2.232145 -0.0903,2.2368 -0.095,2.232146 -0.18523,2.235868 -0.095,2.233077 -0.18524,2.141854 -0.0903,2.232146 -0.18989,2.235869 -0.18523,2.233076 -0.18524,2.141855 -0.18524,2.232145 -0.28018,2.141855 -0.18523,2.232145 -0.18524,2.141855 -0.28018,2.235869 -0.28018,2.138131 -0.18524,2.141854 -0.28018,2.141855 -0.28018,2.141854 -0.28019,2.140924 -0.27552,2.138131 -0.37513,2.050633 -0.28018,2.138131 -0.27553,2.050632 -0.37513,2.138131 -0.28018,2.050633 -0.37047,2.04784 -0.37047,2.046909 -0.37513,1.955687 -0.37047,2.04784 -0.37513,1.951964 -0.37047,1.956618 -0.46542,1.955687 -0.37048,1.952895 -0.37512,1.956618 -0.46542,1.861673 -0.37047,1.951966 -0.46542,1.86167 -0.46542,1.86167 -0.46542,1.77138 -0.46542,1.86168 -0.46541,1.76672 -0.46542,1.77046 -0.46542,1.76765 -0.46542,1.67644 -0.56036,1.67551 -0.46542,1.67271 -0.46542,1.67643 -0.55571,1.67644 -0.46542,1.58149 -0.56036,1.58149 -0.56036,1.58522 -0.55571,1.48747 -0.46542,1.4912 -0.56036,1.48655 -0.55571,1.4912 -0.56037,1.39625 -0.56036,1.39626 -0.65065,1.39625 -0.55571,1.30131 -0.56037,1.39626 -0.56036,1.21101 -0.65066,1.30504 -0.55571,1.20729 -0.56036,1.21102 -0.65065,1.21102 -0.56037,1.11607 -0.65065,1.11607 -0.56036,1.02579 -0.65066,1.11607 -0.65065,1.02578 -0.56037,0.93084 -0.65065,1.02112 -0.65066,0.84055 -0.65065,0.93084 -0.56036,0.83589 -0.65066,0.83961 -0.65065,0.83682 -0.65066,0.7456 -0.65531,0.74467 -0.65065,0.65159 -0.65066,0.65065 -0.65065,0.65066 -0.56036,0.56036 -0.65066,0.55571 -0.65065,0.56036 -0.65066,0.46542 -0.65531,0.46542 -0.65065,0.46542 -0.65066,0.37047 M 221.96499,6.9738959 v 2.1409236 l -0.0949,2.2330765 v 2.232146 l -0.0903,2.141854 -0.095,2.235869 -0.0949,2.233076 -0.18523,2.141855 -0.0903,2.232145 -0.18989,2.235869 -0.18524,2.233077 -0.18524,2.141854 -0.28018,2.232146 -0.28018,2.235869 -0.18524,2.233076 -0.37047,2.141855 -0.28018,2.232145 -0.28018,2.141855 -0.37048,2.232145 -0.37512,2.141855 -0.37048,2.235869 -0.46541,2.138131 -0.37048,2.2368 -0.46541,2.140923 -0.46542,2.138131 -0.46542,2.141855 -0.56036,2.141854 -0.46542,2.141855 -0.56037,2.046909 -0.55571,2.141854 -0.56036,2.140924 -0.65065,2.04784 -0.56037,2.046909 -0.65065,2.046909 -0.65066,2.046909 -0.65065,2.050633 -0.65066,2.04784 -0.7456,1.951964 -0.65065,2.050632 -0.7456,1.952895 -0.7456,1.956618 -0.83589,1.951964 -0.7456,1.956618 -0.7456,1.861673 -0.83589,1.861674 -0.84055,1.86167 -0.83589,1.86167 -0.84054,1.86168 -0.93084,1.86167 -0.83589,1.76673 -0.93084,1.77138 -0.93083,1.76673 -0.93084,1.67643 -0.93084,1.67644 -0.93083,1.76673 -1.02578,1.58149 -0.93084,1.67643 -1.02113,1.58149 -1.02578,1.58522 -1.02113,1.58242 -1.02578,1.58149 -1.02578,1.49027 -1.02113,1.48748 -1.11607,1.4912 -1.02578,1.39625 -1.11608,1.39626 -1.11607,1.39625 -1.12072,1.39625 -1.11608,1.30131 -1.11607,1.30504 -1.11607,1.30224 -1.11608,1.21101 -1.21101,1.21009 -1.11608,1.2073 -1.21102,1.11979 -1.21101,1.11701 -1.11608,1.11607 -1.21101,1.02485 -1.21102,1.02206 -1.21102,1.02578 -1.20636,0.93084 -1.21102,0.93083 -1.21102,0.93084 -1.30131,0.83589 -1.21102,0.83961 -1.21102,0.83683 -1.30131,0.7456 -1.21101,0.74467 -1.21102,0.74187 -1.30131,0.65438 -1.21102,0.65159 -1.30596,0.65065 -1.30131,0.55943 -1.21102,0.55664 -1.30131,0.46542 -1.30596,0.46542 -1.20637,0.46542 -1.30596,0.37419 -1.30131,0.37141 -1.21102,0.37047 M 26.859909,12.929387 l 1.305964,-0.280182 1.301309,-0.370473 1.396254,-0.280181 1.30131,-0.280182 1.396254,-0.370473 1.4912,-0.280182 1.396255,-0.280182 1.491199,-0.276458 L 39.4262,10.231823 41.007691,9.9516414 42.593836,9.6714596 44.175327,9.3912779 45.756818,9.1148195 47.433254,8.8355686 49.014745,8.6494013 50.691182,8.3701504 52.457909,8.0899687 54.134345,7.9047322 55.901073,7.6245505 57.672454,7.439314 59.439182,7.1591323 61.300854,6.9738959 63.072236,6.6937141 64.933909,6.5084777 66.795582,6.3223104 68.747545,6.1333506 70.609218,5.9481142 72.565836,5.7628778 74.5178,5.5776413 76.474418,5.391474 78.431036,5.2025143 80.383,5.0172778 82.429909,4.8320414 84.386527,4.646805 86.433436,4.55186 88.480345,4.3666236 90.6222,4.2716786 l 2.046909,-0.1852364 2.051563,-0.091222 2.137201,-0.1889598 2.141854,-0.090291 2.046913,-0.094945 2.14185,-0.091222 2.14186,-0.1889598 2.14185,-0.090291 2.23215,-0.094945 h 2.14185 l 2.14185,-0.091222 2.23215,-0.094014 2.14185,-0.094945 h 2.23215 l 2.14185,-0.090291 2.2368,-0.094945 h 4.4643 l 2.14185,-0.091222 h 20.01298 l 2.2368,0.091222 h 4.374 l 2.23215,0.094945 2.2368,0.090291 h 2.1372 l 2.2368,0.094945 2.14185,0.094014 2.23215,0.091222 h 2.14185 l 2.14186,0.094945 2.1372,0.090291 2.14185,0.1889598 2.14185,0.091222 2.14186,0.094945 2.14185,0.090291 2.04691,0.1889598 2.14186,0.091222 2.04691,0.1852364 2.04691,0.094945 2.0469,0.1852364 2.04691,0.094945 2.05157,0.1852364 1.95196,0.1852364 2.04691,0.1852365 1.95662,0.1889597 1.95662,0.1861673 1.95196,0.1852365 1.86167,0.1852364 1.95662,0.1852364 1.86167,0.1889598 1.86168,0.1861673 1.86167,0.1852364 1.86167,0.2801818 M 32.444927,56.213278 l 1.305964,-0.280182 1.206364,-0.276459 1.305963,-0.27925 1.301309,-0.280182 1.305964,-0.280182 1.396254,-0.280182 1.396255,-0.276458 1.396254,-0.279251 1.396255,-0.280182 1.486546,-0.280181 1.491199,-0.280182 1.486546,-0.276459 1.4912,-0.188959 1.581491,-0.276459 1.581491,-0.279251 1.586145,-0.186167 1.671782,-0.279251 1.586145,-0.186167 1.671782,-0.279251 1.676437,-0.186167 1.676436,-0.279251 1.766727,-0.186167 1.771382,-0.18896 1.676436,-0.185237 1.861673,-0.185236 1.766727,-0.185237 1.766728,-0.186167 1.861673,-0.18896 1.861672,-0.185236 1.861673,-0.185237 1.861673,-0.185236 1.861672,-0.186167 1.956618,-0.09401 1.956618,-0.185236 1.861673,-0.186167 1.951964,-0.09401 1.956618,-0.185236 2.046909,-0.09495 1.956618,-0.09122 1.951964,-0.188959 2.046913,-0.09029 2.05156,-0.09495 1.95196,-0.09122 2.04691,-0.09401 2.05157,-0.09495 2.04691,-0.09029 2.0469,-0.09495 2.14186,-0.09122 2.04691,-0.09401 h 2.04691 l 2.14185,-0.09495 h 2.04691 l 2.14186,-0.09029 h 2.0469 l 2.14186,-0.09495 h 4.18876 l 2.14186,-0.09122 h 10.51938 l 2.1372,0.09122 h 4.18876 l 2.14186,0.09495 h 2.14185 l 2.04691,0.09029 h 2.14185 l 2.04691,0.09495 h 2.04691 l 2.14186,0.09401 2.04691,0.09122 2.05156,0.09495 2.04691,0.09029 2.04691,0.09495 2.04691,0.09401 2.04691,0.09122 1.95661,0.09495 2.04691,0.09029 1.95662,0.188959 2.04691,0.09122 1.95662,0.09495 1.95196,0.185236 1.95662,0.09401 1.95196,0.186167 1.86168,0.185236 1.95662,0.09401 1.86167,0.186167 1.95662,0.185236 1.86167,0.185237 1.76673,0.185236 1.86167,0.18896 1.86167,0.186167 1.76673,0.185237 1.77138,0.185236 1.76673,0.185237 1.77138,0.18896 m -169.226981,46.167621 1.021127,-0.280181 1.025782,-0.276459 1.116073,-0.279251 1.116073,-0.186167 1.120727,-0.279251 1.116072,-0.186167 1.211019,-0.279251 1.206363,-0.186167 1.211019,-0.279251 1.211018,-0.186168 1.301309,-0.27925 1.305963,-0.186168 1.30131,-0.18896 1.305963,-0.276458 1.301309,-0.18896 1.396255,-0.185236 1.396254,-0.185237 1.396255,-0.185236 1.396254,-0.186167 1.396255,-0.18896 1.4912,-0.185237 1.396254,-0.185236 1.486546,-0.185236 1.4912,-0.186168 1.581491,-0.188959 1.4912,-0.185237 1.581491,-0.09122 1.486545,-0.18896 1.586145,-0.185236 1.581491,-0.09122 1.581491,-0.18896 1.676437,-0.09029 1.581491,-0.186167 1.676436,-0.09401 1.581491,-0.09494 1.676436,-0.185236 1.676436,-0.09122 1.67178,-0.09401 1.67644,-0.09494 1.77138,-0.09029 1.67178,-0.186168 1.67644,-0.09401 h 1.77138 l 1.76673,-0.09494 1.67643,-0.09029 1.76673,-0.09495 1.77138,-0.09122 h 1.76673 l 1.76673,-0.09401 1.77138,-0.09495 h 1.76673 l 1.77138,-0.09029 h 3.53345 l 1.86168,-0.09494 h 7.17116 l 1.76673,-0.09122 h 1.76672 l 1.86168,0.09122 h 7.17116 l 1.76673,0.09494 h 3.53811 l 1.76672,0.09029 h 1.86168 l 1.77138,0.09495 1.76673,0.09401 h 1.67643 l 1.76673,0.09122 1.77138,0.09495 1.76673,0.09029 1.67643,0.09494 h 1.76673 l 1.67644,0.09401 1.76673,0.186168 1.67643,0.09029 1.67644,0.09494 1.67643,0.09401 1.67644,0.09122 1.67178,0.185236 1.67644,0.09494 1.58149,0.09401 1.67644,0.186167 1.58149,0.09029 1.58614,0.18896 1.58149,0.09122 1.58149,0.185236 1.5815,0.18896 1.4912,0.09122 1.58149,0.185237 1.4912,0.188959 1.48654,0.186168 1.4912,0.185236 m -132.458943,38.444469 0.7456,-0.18616 0.835891,-0.18896 0.7456,-0.18524 0.835891,-0.18524 0.840545,-0.18523 0.835891,-0.18617 0.840546,-0.18896 0.835891,-0.18524 0.930836,-0.0912 0.835891,-0.18896 0.930836,-0.18523 0.930837,-0.18524 0.930836,-0.0949 1.025782,-0.18523 0.930836,-0.18524 1.025782,-0.0949 1.021127,-0.18524 0.930837,-0.0912 1.025781,-0.18896 1.116073,-0.0903 1.025782,-0.18617 1.021127,-0.094 1.116073,-0.18523 1.120727,-0.0949 1.021128,-0.0912 1.116072,-0.094 1.120727,-0.18524 1.206368,-0.0949 1.12072,-0.0912 1.11608,-0.094 1.21101,-0.095 1.11608,-0.0903 1.21102,-0.18617 1.20636,-0.094 1.21102,-0.0949 h 1.11607 l 1.21102,-0.0903 1.30596,-0.0949 1.20637,-0.0912 1.21101,-0.094 1.21102,-0.0949 h 1.30131 l 1.21102,-0.0903 1.30596,-0.0949 h 1.20637 l 1.30596,-0.0912 h 1.30131 l 1.21102,-0.094 h 1.30131 l 1.30596,-0.0949 h 1.30131 l 1.30596,-0.0903 h 3.90858 l 1.30131,-0.0949 h 11.7304 l 1.30131,0.0949 h 3.90858 l 1.21102,0.0903 h 1.30597 l 1.3013,0.0949 h 1.30131 l 1.30597,0.094 h 1.21102 l 1.3013,0.0912 h 1.30131 l 1.21102,0.0949 1.30597,0.0903 h 1.20636 l 1.21102,0.0949 1.30596,0.094 1.20637,0.0912 1.21101,0.0949 1.21102,0.0903 h 1.21102 l 1.21102,0.0949 1.11607,0.094 1.21102,0.18617 1.20636,0.0903 1.12073,0.095 1.20636,0.094 1.12073,0.0912 1.11607,0.0949 1.11608,0.18524 1.11607,0.094 1.11607,0.0912 1.02578,0.0949 1.11608,0.18523 m -82.6592,26.99426 0.37512,-0.095 0.37048,-0.0903 0.46541,-0.0949 0.37513,-0.0912 0.46542,-0.094 0.46542,-0.0949 0.46542,-0.0903 0.46541,-0.0949 0.46542,-0.0912 0.46542,-0.094 0.46542,-0.0949 0.46542,-0.0903 0.46541,-0.0949 0.55571,-0.0912 h 0.46542 l 0.56037,-0.094 0.55571,-0.0949 0.46541,-0.0903 0.56037,-0.095 h 0.56036 l 0.55571,-0.0912 0.56036,-0.094 0.55571,-0.095 h 0.56037 l 0.56036,-0.0903 0.65065,-0.095 h 0.55571 l 0.56037,-0.0912 0.65065,-0.094 h 0.56037 l 0.65065,-0.095 h 0.65065 l 0.56037,-0.0903 0.65065,-0.0949 h 0.65066 l 0.56036,-0.0912 h 1.30131 l 0.65065,-0.094 h 0.65531 l 0.65066,-0.095 h 1.30131 l 0.65065,-0.0903 h 1.39626 l 0.6553,-0.0949 h 2.04691 l 0.65066,-0.0912 h 4.09382 l 0.65531,-0.094 h 3.44316 l 0.65065,0.094 h 4.18877 l 0.65065,0.0912 h 2.04691 l 0.65531,0.0949 h 1.30131 l 0.65065,0.0903 h 1.30597 l 0.65065,0.095 h 0.65066 l 0.65065,0.094 h 1.30596 l 0.65066,0.0912 h 0.55571 l 0.65531,0.0949 0.65065,0.0903 h 0.55571 l 0.65531,0.095 h 0.65065 l 0.55571,0.094 0.56037,0.0912 h 0.65065 l 0.56037,0.095 0.55571,0.0903 h 0.56036 l 0.56036,0.095"
       style="fill:none;stroke:#000000;stroke-width:0.465418;stroke-linecap:butt;stroke-linejoin:miter;stroke-miterlimit:10;stroke-dasharray:0.930836, 1.39625;stroke-dashoffset:0;stroke-opacity:1"
       id="path108"
       inkscape:connector-curvature="0" /><path
       d="M 14.759036,14.510878 3.9641272,10.136878 15.504636,8.5553868 M 141.63296,26.891932 3.9641272,10.136878"
       style="fill:none;stroke:#000000;stroke-width:1.39625;stroke-linecap:butt;stroke-linejoin:miter;stroke-miterlimit:10;stroke-dasharray:none;stroke-opacity:1"
       id="path112"
       inkscape:connector-curvature="0" /><path
       d="M 14.759036,14.510878 3.9641272,10.136878 15.504636,8.5553868"
       style="fill:none;stroke:#000000;stroke-width:1.39625;stroke-linecap:butt;stroke-linejoin:miter;stroke-miterlimit:10;stroke-dasharray:none;stroke-opacity:1"
       id="path2024"
       inkscape:connector-curvature="0" /><path
       d="m 226.33907,2.7851322 11.63546,0.1852365 -10.2392,5.5850181 M 141.63296,26.891932 237.97453,2.9703687"
       style="fill:none;stroke:#000000;stroke-width:1.39625;stroke-linecap:butt;stroke-linejoin:miter;stroke-miterlimit:10;stroke-dasharray:none;stroke-opacity:1"
       id="path120"
       inkscape:connector-curvature="0" /><path
       d="m 226.33907,2.7851322 11.63546,0.1852365 -10.2392,5.5850181"
       style="fill:none;stroke:#000000;stroke-width:1.39625;stroke-linecap:butt;stroke-linejoin:miter;stroke-miterlimit:10;stroke-dasharray:none;stroke-opacity:1"
       id="path124"
       inkscape:connector-curvature="0" /><path
       d="m 144.61071,181.13059 -2.97775,11.26498 -2.97774,-11.26498 M 141.63296,26.891932 V 192.39557"
       style="fill:none;stroke:#000000;stroke-width:1.39625;stroke-linecap:butt;stroke-linejoin:miter;stroke-miterlimit:10;stroke-dasharray:none;stroke-opacity:1"
       id="path128"
       inkscape:connector-curvature="0" /><path
       d="m 144.61071,181.13059 -2.97775,11.26498 -2.97774,-11.26498"
       style="fill:none;stroke:#000000;stroke-width:1.39625;stroke-linecap:butt;stroke-linejoin:miter;stroke-miterlimit:10;stroke-dasharray:none;stroke-opacity:1"
       id="path132"
       inkscape:connector-curvature="0" /><path
       d="m 92.018454,127.05179 h 0.280182 l 0.185237,-0.0949 h 0.465418 l 0.280181,-0.0912 h 0.465419 l 0.185236,-0.094 h 0.7456 l 0.185236,-0.0949 h 0.560364 l 0.185236,-0.0903 h 0.465419 l 0.280181,-0.0949 h 0.7456 l 0.185237,-0.0912 h 0.465418 l 0.280182,-0.094 h 0.740945 l 0.280182,-0.0949 h 0.465418 l 0.185237,-0.0903 h 0.745598 l 0.28018,-0.0949 h 0.7456 l 0.28019,-0.0912 h 0.74094 l 0.28018,-0.094 h 0.7456 l 0.28018,-0.095 h 0.7456 l 0.27553,-0.0903 h 0.7456 l 0.28018,-0.0949 h 0.7456 l 0.28019,-0.0912 h 1.02112 l 0.28018,-0.094 h 1.02579 l 0.27552,-0.0949 h 0.84055 l 0.28018,-0.0903 h 1.02113 l 0.28018,-0.0949 h 1.30131 l 0.28018,-0.0912 h 1.11607 l 0.28019,-0.094 h 0.28018 M 79.6374,152.08942 92.018454,127.05179 m -18.616727,-34.816076 0.185237,0.465418 0.18989,0.375127 0.185237,0.465418 0.185236,0.370473 0.09494,0.465418 0.185237,0.465419 0.185236,0.374196 0.185237,0.465418 0.185236,0.371404 0.189891,0.465418 0.185236,0.370473 0.185237,0.465418 0.185236,0.375127 0.185237,0.465418 0.18989,0.370473 0.185237,0.465418 0.185236,0.374196 0.185236,0.465419 0.185237,0.371405 0.18989,0.37047 0.185237,0.46542 0.185236,0.37513 0.185237,0.46541 0.185236,0.37048 0.189891,0.46542 0.185236,0.37419 0.185237,0.37141 0.280181,0.46541 0.185237,0.37048 0.185236,0.37512 0.185237,0.46542 0.18989,0.37047 0.185237,0.3742 0.185236,0.46542 0.185237,0.3714 0.280181,0.37048 0.185237,0.37512 0.185236,0.46542 0.189891,0.37047 0.185236,0.3742 0.185237,0.3714 0.280182,0.46542 0.185236,0.37047 0.185236,0.37513 0.185237,0.37047 0.280182,0.3742 0.185236,0.3714 0.189891,0.46542 0.185236,0.37048 0.280182,0.37512 0.185236,0.37048 0.185237,0.37419 0.185236,0.37141 0.280182,0.37047 0.185236,0.37513 0.185237,0.37047 0.280181,0.37419 0.185237,0.37141 0.189891,0.37047 0.275527,0.37513 0.189891,0.37047 0.185236,0.3742 0.280182,0.3714 0.185236,0.37047 0.280182,0.37513 0.185237,0.37047 0.185236,0.3742 0.280182,0.3714 0.185236,0.37048 0.280182,0.37512 0.185236,0.37048 0.185237,0.37419 0.280181,0.27646 0.185237,0.37513 0.280182,0.37047 0.185236,0.3742 0.280182,0.3714 0.185236,0.37047 0.280182,0.28019 0.185236,0.37419 0.280182,0.37141 0.185237,0.37047 0.280181,0.28018 0.185237,0.3742 0.280182,0.3714 0.185236,0.28018 0.280182,0.37047 0.185236,0.3742 0.280182,0.27646 0.185236,0.37513 0.280182,0.37047"
       style="fill:none;stroke:#000000;stroke-width:1.6;stroke-linecap:butt;stroke-linejoin:miter;stroke-miterlimit:10;stroke-dasharray:3.2, 3.2;stroke-dashoffset:0;stroke-opacity:1"
       id="path176"
       inkscape:connector-curvature="0" /><g
       style="font-style:normal;font-variant:normal;font-weight:normal;font-stretch:normal;font-size:12px;line-height:125%;font-family:Arial;-inkscape-font-specification:Sans;letter-spacing:0px;word-spacing:0px;fill:#000000;fill-opacity:1;stroke:none"
       id="flowRoot3223" /><g
       style="font-style:normal;font-variant:normal;font-weight:normal;font-stretch:normal;font-size:9px;line-height:125%;font-family:sans;-inkscape-font-specification:sans;letter-spacing:0px;word-spacing:0px;fill:#000000;fill-opacity:1;stroke:none"
       id="flowRoot3040" /><path
       d="m 56.366491,108.6203 0.189891,0.46541 0.275527,0.55944 0.189891,0.55664 0.185236,0.56036 0.280182,0.46542 0.185236,0.55571 0.185237,0.56036 0.280182,0.46542 0.185236,0.55943 0.280182,0.55664 0.185236,0.46542 0.280182,0.56036 0.185236,0.55571 0.280182,0.46542 0.185237,0.56036 0.185236,0.46542 0.280182,0.55944 0.280181,0.55664 0.185237,0.46541 0.280182,0.56037 0.185236,0.46542 0.280182,0.5557 0.185236,0.46542 0.280182,0.56037 0.185236,0.46541 0.280182,0.55944 0.280182,0.46542 0.185236,0.55664 0.280182,0.46541 0.185237,0.46542 0.280181,0.56037 0.275528,0.46541 0.18989,0.55571 0.275528,0.46542 0.280182,0.46542 0.280181,0.56036 0.185237,0.46542 0.280182,0.46542 0.280181,0.55943 0.185237,0.46542 0.280182,0.46542 0.280181,0.46542 0.275528,0.55664 0.189891,0.46541 0.275527,0.46542 0.280182,0.46542 0.280182,0.56036 0.280181,0.46542 0.280182,0.46542 0.185236,0.46542 0.280182,0.46542 0.275528,0.46542 0.280182,0.46541 0.280181,0.55571 0.280182,0.46542 0.280182,0.46542 0.275527,0.46542 0.189891,0.46542 0.275528,0.46541 0.280181,0.46542 0.280182,0.46542 0.280182,0.46542 0.280182,0.46542 0.275527,0.46541 0.280182,0.46542 0.280182,0.46542 0.280181,0.37513 0.280182,0.46542 0.275528,0.46541 0.280181,0.46542 0.280182,0.46542 0.280182,0.46542 0.280182,0.46542 0.275527,0.37047 0.280182,0.46542 0.280182,0.46542 0.280181,0.46541 0.370473,0.3742 0.280182,0.46542 0.280182,0.46542 0.280181,0.46542 0.275528,0.3714 0.280182,0.46542 0.280182,0.46542 0.280181,0.37047 0.370473,0.46542 0.280182,0.37512 0.280182,0.46542 0.280181,0.46542 0.275528,0.37047 0.375127,0.46542 M 79.6374,152.08942 h 0.280182 l 0.375127,-0.0912 h 0.275527 l 0.280182,-0.094 h 0.560364 l 0.280181,-0.095 h 0.55571 l 0.375127,-0.0903 h 0.275527 l 0.280182,-0.095 h 0.560363 l 0.280182,-0.0912 h 0.370473 l 0.280182,-0.094 h 0.555709 l 0.375127,-0.095 h 0.555709 l 0.280182,-0.0903 h 0.650655 l 0.280182,-0.0949 h 0.650654 l 0.280182,-0.0912 h 0.280182 l 0.370473,-0.094 h 0.560363 l 0.370473,-0.095 h 0.560363 l 0.370473,-0.0903 H 91.3678 l 0.370473,-0.0949 h 0.930836 l 0.280182,-0.0912 h 0.650654 l 0.280182,-0.094 h 0.650655 l 0.375127,-0.0949 h 0.650654 l 0.280182,-0.0903 h 1.021128 l 0.280181,-0.095 h 0.650655 l 0.280182,-0.0912 h 1.025781 l 0.280182,-0.094 h 0.740946 l 0.28018,-0.0949 h 1.02578 l 0.28019,-0.0903 h 1.02112 l 0.37513,-0.095 h 0.93084 l 0.37047,-0.0912 h 1.02578 l 0.27553,-0.094 h 1.39625 l 0.28018,-0.095 h 1.02579 m -12.941422,-44.49119 0.189891,0.55664 0.09029,0.46542 0.09494,0.56037 0.09029,0.55571 0.189891,0.56036 0.09029,0.55943 0.09494,0.55664 0.185237,0.46542 0.09495,0.56036 0.09029,0.55571 0.09495,0.56037 0.185237,0.46541 0.09495,0.55944 0.09029,0.55664 0.185237,0.56036 0.09494,0.46542 0.09495,0.55571 0.185237,0.56036 0.09029,0.46542 0.189891,0.55943 0.09029,0.55664 0.09495,0.46542 0.185236,0.56036 0.09495,0.46542 0.185236,0.55571 0.09029,0.56037 0.09495,0.46541 0.185236,0.55944 0.09495,0.46541 0.185237,0.55664 0.09494,0.46542 0.09029,0.56037 0.185237,0.46541 0.09495,0.55571 0.185236,0.46542 0.09495,0.56037 0.18524,0.46541 0.0949,0.55944 0.18524,0.46541 0.0903,0.46542 0.18989,0.55664 0.0903,0.46542 0.18524,0.56036 0.0949,0.46542 0.18524,0.46542 0.0949,0.55571 0.18524,0.46542 0.0949,0.46542 0.18523,0.46541 0.0903,0.56037 0.18989,0.46542 0.0903,0.46541 0.18524,0.46542 0.18989,0.55944 0.0903,0.46541 0.18524,0.46542 0.0949,0.46542 0.18524,0.46542 0.0949,0.55664 0.18523,0.46542 0.18524,0.46541 0.0949,0.46542 0.18524,0.46542 0.0949,0.46542 0.18523,0.46542 0.18524,0.46542 0.0949,0.46541 0.18524,0.46542 0.0903,0.46542 0.18989,0.46542 0.18524,0.46542 0.0903,0.46541 0.18989,0.46542 0.18524,0.46542 0.0903,0.46542 0.18989,0.46542 0.18524,0.46542 0.0903,0.46541 0.18989,0.46542 0.18523,0.3742 0.0903,0.46542 0.1899,0.46541 0.18523,0.46542 0.0903,0.46542 0.18989,0.3714 0.18524,0.46542 0.18524,0.46542 0.0949,0.37047 0.18524,0.46542 0.18523,0.46542 0.0949,0.46542 m -51.851318,-41.32727 0.375127,-0.0949 0.370473,-0.0903 h 0.465418 l 0.375127,-0.0949 h 0.370473 l 0.465418,-0.0912 h 0.370473 l 0.375127,-0.094 h 0.465418 l 0.370473,-0.095 h 0.375127 l 0.465418,-0.0903 h 0.370473 l 0.370473,-0.0949 h 0.465418 l 0.375127,-0.0912 h 0.465419 l 0.370472,-0.094 0.375127,-0.0949 h 0.465419 l 0.370472,-0.0903 h 0.465419 l 0.370473,-0.0949 h 0.840545 l 0.465418,-0.0912 h 0.370473 l 0.465418,-0.094 h 0.375127 l 0.465418,-0.0949 h 0.465418 l 0.370473,-0.0903 h 0.465418 l 0.370473,-0.0949 h 0.465419 l 0.375127,-0.0912 h 0.465418 l 0.465418,-0.094 h 0.370473 l 0.465418,-0.0949 h 0.840545 l 0.465418,-0.0903 h 0.465419 l 0.370472,-0.0949 h 0.465419 l 0.465418,-0.0912 h 0.835891 l 0.465418,-0.094 h 0.465418 l 0.375127,-0.0949 h 0.930837 l 0.465418,-0.0903 h 0.370473 l 0.465418,-0.0949 h 0.930836 l 0.465418,-0.0912 h 0.375127 l 0.465419,-0.094 h 0.930836 l 0.465418,-0.0949 h 0.465418 l 0.370473,-0.0903 h 0.930837 l 0.465418,-0.0949 h 0.930836 l 0.465418,-0.0912 h 0.930837 l 0.465418,-0.094 h 0.835891 l 0.465418,-0.0949 h 0.930836 l 0.465419,-0.0903 h 0.930836 l 0.465418,-0.0949 h 0.930837 l 0.465418,-0.0912 h 0.930836 l 0.465418,-0.094 m 8.752663,-15.544036 0.0903,0.465418 0.0949,0.370473 0.0949,0.465418 0.0903,0.465418 0.0949,0.374196 0.0903,0.465419 0.18989,0.465418 0.0903,0.371403 0.0949,0.465419 0.0903,0.370472 0.0949,0.465419 0.0949,0.465418 0.0903,0.375127 0.095,0.465418 0.0903,0.370473 0.0949,0.465418 0.0949,0.465418 0.0903,0.374197 0.0949,0.465418 0.0903,0.371403 0.1899,0.465419 0.0903,0.370472 0.0949,0.465419 0.0903,0.375127 0.0949,0.465416 0.0949,0.37047 0.0903,0.3742 0.0949,0.46542 0.0903,0.3714 0.18989,0.46542 0.0903,0.37047 0.0949,0.46542 0.0903,0.37513 0.0949,0.37047 0.0949,0.46542 0.18524,0.3742 0.0903,0.3714 0.0949,0.46542 0.095,0.37047 0.0903,0.37513 0.0949,0.46542 0.18524,0.37047 0.0949,0.3742 0.0903,0.46541 0.0949,0.37141 0.0903,0.37047 0.18989,0.37513 0.0903,0.46542 0.0949,0.37047 0.0903,0.37419 0.18989,0.37141 0.0903,0.46542 0.0949,0.37047 0.0903,0.37513 0.18989,0.37047 0.0903,0.3742 0.0949,0.3714 0.0903,0.46542 0.18989,0.37047 0.0903,0.37513 0.0949,0.37047 0.0903,0.3742 0.18989,0.3714 0.0903,0.37047 0.0949,0.37513 0.18524,0.37047 0.0949,0.3742 0.0903,0.3714 0.0949,0.37048 0.18524,0.37512 0.0949,0.37048 0.0903,0.37419 0.18524,0.37141 0.0949,0.37047 0.0949,0.37513 0.18524,0.37047 0.0903,0.37419 0.0949,0.37141 0.18524,0.37047 0.0949,0.28018 0.0903,0.3742 0.18989,0.3714 0.0903,0.37048 0.18524,0.37512 0.0949,0.37048 0.095,0.28018 0.18523,0.37047 0.0903,0.37513 0.0949,0.37047 0.18524,0.28018 0.0949,0.37047 M 73.400281,92.236534 h 0.280182 l 0.370473,-0.09029 h 0.280182 l 0.375127,-0.09495 h 0.275527 l 0.375127,-0.09122 h 0.650655 l 0.280182,-0.09401 h 0.280181 l 0.370473,-0.09494 h 0.280182 l 0.370473,-0.09029 h 0.650654 l 0.280182,-0.09495 h 0.375127 l 0.370473,-0.09122 h 0.650655 l 0.280181,-0.09401 h 0.370473 l 0.280182,-0.09494 h 0.7456 l 0.280182,-0.09029 h 0.370473 l 0.280181,-0.09494 h 0.7456 l 0.280182,-0.09122 h 0.740946 l 0.280181,-0.09401 h 0.375128 l 0.370472,-0.09495 h 0.650655 l 0.375127,-0.09029 h 0.650655 l 0.370473,-0.09494 h 0.650654 l 0.375127,-0.09122 h 0.7456 l 0.275528,-0.09401 h 0.375127 l 0.370473,-0.09495 h 1.025781 l 0.370473,-0.09029 h 0.7456 l 0.370473,-0.09494 h 0.655309 l 0.370473,-0.09122 h 0.7456 l 0.370472,-0.09401 h 0.7456 l 0.280182,-0.09494 h 1.116073 l 0.370473,-0.09029 h 0.7456 l 0.375127,-0.09494 h 1.116073 l 0.370472,-0.09122 h 0.650663 l 0.37513,-0.09401 h 1.11607 l 0.37047,-0.09494 h 1.12073 l 0.37047,-0.09029 h 1.11607 M 56.366491,108.6203 73.401727,92.235714 m 34.721123,57.246436 6.7011,-24.57222 M 95.461618,104.99096 104.67969,89.352914"
       style="fill:none;stroke:#000000;stroke-width:1.6;stroke-linecap:butt;stroke-linejoin:miter;stroke-miterlimit:10;stroke-dasharray:none;stroke-opacity:1"
       id="path172"
       inkscape:connector-curvature="0" /><g
       inkscape:label=""
       transform="matrix(1.2,0,0,-1.2,-53.931801,179.22532)"
       id="g5910"
       style="fill:#297400;fill-opacity:1;stroke:#000000;stroke-opacity:0"><g
   id="g3777"
   style="fill:#297400;fill-opacity:1;stroke:#000000;stroke-opacity:0">
    <g
   style="fill:#297400;fill-opacity:1;stroke:#000000;stroke-opacity:0"
   id="g3266">
      <use
   xlink:href="#symbol2963"
   x="91.925003"
   y="81.962997"
   id="use6986"
   width="100%"
   height="100%"
   style="fill:#297400;fill-opacity:1;stroke:#000000;stroke-opacity:0" />
    </g>
    <g
   style="fill:#297400;fill-opacity:1;stroke:#000000;stroke-opacity:0"
   id="g3996">
      <use
   xlink:href="#symbol7174"
   x="97.737"
   y="83.457001"
   id="use506"
   width="100%"
   height="100%"
   style="fill:#297400;fill-opacity:1;stroke:#000000;stroke-opacity:0" />
    </g>
  </g>
</g><g
       inkscape:label=""
       transform="matrix(1.2,0,0,-1.2,-20.930112,176.43401)"
       id="g6183"
       style="fill:#297400;fill-opacity:1;stroke:none;stroke-opacity:1"><g
   id="g345"
   style="fill:#297400;fill-opacity:1;stroke:none;stroke-opacity:1">
    <g
   style="fill:#297400;fill-opacity:1;stroke:none;stroke-opacity:1"
   id="g902">
      <use
   xlink:href="#symbol209"
   x="91.925003"
   y="81.962997"
   id="use5900"
   width="100%"
   height="100%"
   style="fill:#297400;fill-opacity:1;stroke:none;stroke-opacity:1" />
    </g>
    <g
   style="fill:#297400;fill-opacity:1;stroke:none;stroke-opacity:1"
   id="g1679">
      <use
   xlink:href="#symbol5968"
   x="97.737"
   y="83.457001"
   id="use507"
   width="100%"
   height="100%"
   style="fill:#297400;fill-opacity:1;stroke:none;stroke-opacity:1" />
    </g>
  </g>
</g><g
       inkscape:label=""
       transform="matrix(1.2,0,0,-1.2,8.311096,227.17118)"
       id="g6486"
       style="fill:#1c19ca;fill-opacity:1"><g
   id="g7337"
   style="fill:#1c19ca;fill-opacity:1">
    <g
   style="fill:#1c19ca;fill-opacity:1"
   id="g8529">
      <use
   xlink:href="#symbol594"
   x="91.925003"
   y="81.962997"
   id="use7438"
   width="100%"
   height="100%"
   style="fill:#1c19ca;fill-opacity:1" />
    </g>
    <g
   style="fill:#1c19ca;fill-opacity:1"
   id="g496">
      <use
   xlink:href="#symbol9880"
   x="97.861"
   y="83.457001"
   id="use5835"
   width="100%"
   height="100%"
   style="fill:#1c19ca;fill-opacity:1" />
    </g>
  </g>
</g><g
       inkscape:label=""
       transform="matrix(1.2,0,0,-1.2,-1.8462678,190.98088)"
       id="g6819"
       style="fill:#1c19ca;fill-opacity:1"><g
   id="g3377"
   style="fill:#1c19ca;fill-opacity:1">
    <g
   style="fill:#1c19ca;fill-opacity:1"
   id="g781">
      <use
   xlink:href="#symbol2690"
   x="91.925003"
   y="81.962997"
   id="use3427"
   width="100%"
   height="100%"
   style="fill:#1c19ca;fill-opacity:1" />
    </g>
    <g
   style="fill:#1c19ca;fill-opacity:1"
   id="g7791">
      <use
   xlink:href="#symbol1678"
   x="97.861"
   y="83.457001"
   id="use4244"
   width="100%"
   height="100%"
   style="fill:#1c19ca;fill-opacity:1" />
    </g>
  </g>
</g><g
       inkscape:label=""
       transform="matrix(1.2,0,0,-1.2,-0.0187045,156.51212)"
       id="g7638"
       style="fill:#ca1919;fill-opacity:1"><g
   id="g2031"
   style="fill:#ca1919;fill-opacity:1">
    <g
   style="fill:#ca1919;fill-opacity:1"
   id="g4222">
      <use
   xlink:href="#symbol9775"
   x="91.925003"
   y="81.962997"
   id="use7328"
   width="100%"
   height="100%"
   style="fill:#ca1919;fill-opacity:1" />
    </g>
    <g
   style="fill:#ca1919;fill-opacity:1"
   id="g6543">
      <use
   xlink:href="#symbol2657"
   x="96.419998"
   y="83.457001"
   id="use7133"
   width="100%"
   height="100%"
   style="fill:#ca1919;fill-opacity:1" />
    </g>
  </g>
</g><g
       inkscape:label=""
       transform="matrix(1.2,0,0,-1.2,9.1112033,210.19516)"
       id="g8007"
       style="fill:#cf1515;fill-opacity:0.94902"><g
   id="g1944"
   style="fill:#cf1515;fill-opacity:0.94902">
    <g
   style="fill:#cf1515;fill-opacity:0.94902"
   id="g2064">
      <use
   xlink:href="#symbol2879"
   x="91.925003"
   y="81.962997"
   id="use2245"
   width="100%"
   height="100%"
   style="fill:#cf1515;fill-opacity:0.94902" />
    </g>
    <g
   style="fill:#cf1515;fill-opacity:0.94902"
   id="g7920">
      <use
   xlink:href="#symbol4164"
   x="96.419998"
   y="83.457001"
   id="use2793"
   width="100%"
   height="100%"
   style="fill:#cf1515;fill-opacity:0.94902" />
    </g>
  </g>
</g><path
       style="fill:none;stroke:none;stroke-width:0.8px;stroke-linecap:butt;stroke-linejoin:miter;stroke-opacity:1"
       d="M 141.63296,26.891936 26.859909,12.929384 C 32.077101,11.10067 48.241135,8.5370669 57.297327,7.439313 Z"
       id="path17981"
       sodipodi:nodetypes="cccc" /><path
       style="fill:none;stroke:#cf1515;stroke-width:0.776384px;stroke-linecap:butt;stroke-linejoin:miter;stroke-opacity:1;marker-end:url(#Arrow1Mend2604)"
       d="M 141.64312,26.885923 105.78039,87.503819"
       id="path28536" /><path
       style="fill:none;stroke:#ca1919;stroke-width:0.789284px;stroke-linecap:butt;stroke-linejoin:miter;stroke-opacity:1;marker-end:url(#Arrow1Mend400536)"
       d="M 141.63813,26.890522 108.71324,147.22959"
       id="path28538"
       sodipodi:nodetypes="cc" /></g></svg>
